Nobile-Heavy.ufo
<glyph name="exclam" format="1">
  <advance width="687"/>
  <unicode hex="0021"/>
  <outline>
    <contour>
      <point x="350" y="-20" type="curve" smooth="yes"/>
      <point x="468" y="-20"/>
      <point x="568" y="73"/>
      <point x="568" y="193" type="curve" smooth="yes"/>
      <point x="568" y="314"/>
      <point x="470" y="404"/>
      <point x="350" y="404" type="curve" smooth="yes"/>
      <point x="227" y="404"/>
      <point x="138" y="309"/>
      <point x="138" y="193" type="curve" smooth="yes"/>
      <point x="138" y="73"/>
      <point x="231" y="-20"/>
    </contour>
    <contour>
      <point x="237" y="582" type="line"/>
      <point x="447" y="582" type="line"/>
      <point x="532" y="1485" type="line"/>
      <point x="143" y="1485" type="line"/>
    </contour>
  </outline>
</glyph>
<glyph name="quotedbl" format="1">
  <advance width="1085"/>
  <unicode hex="0022"/>
  <outline>
    <contour>
      <point x="214" y="771" type="line"/>
      <point x="410" y="771" type="line"/>
      <point x="482" y="1401" type="line"/>
      <point x="482" y="1491" type="line"/>
      <point x="129" y="1491" type="line"/>
      <point x="129" y="1401" type="line"/>
    </contour>
    <contour>
      <point x="695" y="771" type="line"/>
      <point x="891" y="771" type="line"/>
      <point x="982" y="1401" type="line"/>
      <point x="982" y="1491" type="line"/>
      <point x="628" y="1491" type="line"/>
      <point x="628" y="1401" type="line"/>
    </contour>
  </outline>
</glyph>
<glyph name="percent" format="1">
  <advance width="2248"/>
  <unicode hex="0025"/>
  <outline>
    <contour>
      <point x="488" y="899" type="curve" smooth="yes"/>
      <point x="403" y="899"/>
      <point x="349" y="973"/>
      <point x="349" y="1089" type="curve" smooth="yes"/>
      <point x="349" y="1209"/>
      <point x="403" y="1283"/>
      <point x="488" y="1283" type="curve" smooth="yes"/>
      <point x="573" y="1283"/>
      <point x="626" y="1209"/>
      <point x="626" y="1089" type="curve" smooth="yes"/>
      <point x="626" y="973"/>
      <point x="573" y="899"/>
    </contour>
    <contour>
      <point x="488" y="669" type="curve" smooth="yes"/>
      <point x="728" y="669"/>
      <point x="879" y="831"/>
      <point x="879" y="1089" type="curve" smooth="yes"/>
      <point x="879" y="1347"/>
      <point x="728" y="1508"/>
      <point x="488" y="1508" type="curve" smooth="yes"/>
      <point x="247" y="1508"/>
      <point x="95" y="1347"/>
      <point x="95" y="1089" type="curve" smooth="yes"/>
      <point x="95" y="831"/>
      <point x="247" y="669"/>
    </contour>
    <contour>
      <point x="839" y="-152" type="line"/>
      <point x="1656" y="1545" type="line"/>
      <point x="1416" y="1647" type="line"/>
      <point x="603" y="-52" type="line"/>
    </contour>
    <contour>
      <point x="1775" y="213" type="curve" smooth="yes"/>
      <point x="1690" y="213"/>
      <point x="1636" y="287"/>
      <point x="1636" y="403" type="curve" smooth="yes"/>
      <point x="1636" y="523"/>
      <point x="1690" y="597"/>
      <point x="1775" y="597" type="curve" smooth="yes"/>
      <point x="1860" y="597"/>
      <point x="1913" y="523"/>
      <point x="1913" y="403" type="curve" smooth="yes"/>
      <point x="1913" y="287"/>
      <point x="1860" y="213"/>
    </contour>
    <contour>
      <point x="1775" y="-17" type="curve" smooth="yes"/>
      <point x="2015" y="-17"/>
      <point x="2166" y="145"/>
      <point x="2166" y="403" type="curve" smooth="yes"/>
      <point x="2166" y="661"/>
      <point x="2015" y="822"/>
      <point x="1775" y="822" type="curve" smooth="yes"/>
      <point x="1534" y="822"/>
      <point x="1383" y="661"/>
      <point x="1383" y="403" type="curve" smooth="yes"/>
      <point x="1383" y="145"/>
      <point x="1534" y="-17"/>
    </contour>
  </outline>
</glyph>
<glyph name="ampersand" format="1">
  <advance width="1681"/>
  <unicode hex="0026"/>
  <outline>
    <contour>
      <point x="908" y="778" type="line"/>
      <point x="1118" y="919"/>
      <point x="1183" y="1030"/>
      <point x="1183" y="1203" type="curve" smooth="yes"/>
      <point x="1183" y="1365"/>
      <point x="1006" y="1508"/>
      <point x="730" y="1508" type="curve" smooth="yes"/>
      <point x="435" y="1508"/>
      <point x="272" y="1367"/>
      <point x="272" y="1186" type="curve" smooth="yes"/>
      <point x="272" y="1013"/>
      <point x="352" y="919"/>
      <point x="490" y="817" type="curve"/>
      <point x="363" y="732"/>
      <point x="151" y="621"/>
      <point x="151" y="368" type="curve" smooth="yes"/>
      <point x="151" y="81"/>
      <point x="404" y="-17"/>
      <point x="733" y="-17" type="curve" smooth="yes"/>
      <point x="1013" y="-17"/>
      <point x="1150" y="55"/>
      <point x="1261" y="153" type="curve"/>
      <point x="1507" y="-68" type="line"/>
      <point x="1670" y="136" type="line"/>
      <point x="1421" y="344" type="line"/>
      <point x="1481" y="445"/>
      <point x="1531" y="610"/>
      <point x="1531" y="801" type="curve"/>
      <point x="1280" y="811" type="line"/>
      <point x="1280" y="725"/>
      <point x="1249" y="570"/>
      <point x="1211" y="513" type="curve"/>
    </contour>
    <contour>
      <point x="792" y="248" type="curve" smooth="yes"/>
      <point x="609" y="248"/>
      <point x="532" y="328"/>
      <point x="532" y="417" type="curve" smooth="yes"/>
      <point x="532" y="511"/>
      <point x="591" y="582"/>
      <point x="681" y="638" type="curve"/>
      <point x="1055" y="316" type="line"/>
      <point x="975" y="267"/>
      <point x="883" y="248"/>
    </contour>
    <contour>
      <point x="716" y="941" type="curve"/>
      <point x="650" y="983"/>
      <point x="582" y="1065"/>
      <point x="582" y="1160" type="curve" smooth="yes"/>
      <point x="582" y="1233"/>
      <point x="626" y="1281"/>
      <point x="742" y="1281" type="curve" smooth="yes"/>
      <point x="848" y="1281"/>
      <point x="898" y="1236"/>
      <point x="898" y="1152" type="curve" smooth="yes"/>
      <point x="898" y="1046"/>
      <point x="798" y="984"/>
    </contour>
  </outline>
</glyph>
<glyph name="quotesingle" format="1">
  <advance width="776"/>
  <unicode hex="0027"/>
  <outline>
    <contour>
      <point x="270" y="771" type="line"/>
      <point x="467" y="771" type="line"/>
      <point x="558" y="1401" type="line"/>
      <point x="558" y="1491" type="line"/>
      <point x="185" y="1491" type="line"/>
      <point x="185" y="1401" type="line"/>
    </contour>
  </outline>
</glyph>
<glyph name="asterisk" format="1">
  <advance width="954"/>
  <unicode hex="002A"/>
  <outline>
    <contour>
      <point x="376" y="735" type="curve"/>
      <point x="400" y="777"/>
      <point x="372" y="725"/>
      <point x="501" y="950" type="curve"/>
      <point x="625" y="732" type="line"/>
      <point x="807" y="844" type="line"/>
      <point x="677" y="1074" type="line"/>
      <point x="921" y="1074" type="line"/>
      <point x="921" y="1249" type="line"/>
      <point x="672" y="1249" type="line"/>
      <point x="810" y="1487" type="line"/>
      <point x="736" y="1530"/>
      <point x="704" y="1549"/>
      <point x="629" y="1593" type="curve"/>
      <point x="591" y="1531"/>
      <point x="606" y="1564"/>
      <point x="496" y="1374" type="curve"/>
      <point x="367" y="1592" type="line"/>
      <point x="191" y="1493" type="line"/>
      <point x="327" y="1249" type="line"/>
      <point x="55" y="1249" type="line"/>
      <point x="55" y="1074" type="line"/>
      <point x="327" y="1074" type="line"/>
      <point x="195" y="844" type="line"/>
      <point x="269" y="801"/>
      <point x="301" y="780"/>
    </contour>
  </outline>
</glyph>
<glyph name="hyphen" format="1">
  <advance width="1130"/>
  <unicode hex="002D"/>
  <outline>
    <contour>
      <point x="160" y="568" type="line"/>
      <point x="953" y="568" type="line"/>
      <point x="953" y="834" type="line"/>
      <point x="160" y="834" type="line"/>
    </contour>
  </outline>
</glyph>
<glyph name="period" format="1">
  <advance width="582"/>
  <unicode hex="002E"/>
  <outline>
    <contour>
      <point x="298" y="7" type="curve" smooth="yes"/>
      <point x="417" y="7"/>
      <point x="515" y="97"/>
      <point x="515" y="218" type="curve" smooth="yes"/>
      <point x="515" y="338"/>
      <point x="415" y="431"/>
      <point x="298" y="431" type="curve" smooth="yes"/>
      <point x="178" y="431"/>
      <point x="85" y="338"/>
      <point x="85" y="218" type="curve" smooth="yes"/>
      <point x="85" y="103"/>
      <point x="174" y="7"/>
    </contour>
  </outline>
</glyph>
<glyph name="zero" format="1">
  <advance width="1407"/>
  <unicode hex="0030"/>
  <outline>
    <contour>
      <point x="699" y="268" type="curve" smooth="yes"/>
      <point x="556" y="268"/>
      <point x="507" y="374"/>
      <point x="507" y="546" type="curve" smooth="yes"/>
      <point x="507" y="685"/>
      <point x="548" y="827"/>
      <point x="699" y="827" type="curve" smooth="yes"/>
      <point x="852" y="827"/>
      <point x="900" y="703"/>
      <point x="900" y="554" type="curve" smooth="yes"/>
      <point x="900" y="394"/>
      <point x="853" y="268"/>
    </contour>
    <contour>
      <point x="697" y="-20" type="curve" smooth="yes"/>
      <point x="1057" y="-20"/>
      <point x="1262" y="194"/>
      <point x="1262" y="534" type="curve" smooth="yes"/>
      <point x="1262" y="897"/>
      <point x="1076" y="1116"/>
      <point x="699" y="1116" type="curve" smooth="yes"/>
      <point x="338" y="1116"/>
      <point x="142" y="908"/>
      <point x="142" y="544" type="curve" smooth="yes"/>
      <point x="142" y="202"/>
      <point x="333" y="-20"/>
    </contour>
  </outline>
</glyph>
<glyph name="one" format="1">
  <advance width="957"/>
  <unicode hex="0031"/>
  <outline>
    <contour>
      <point x="356" y="0" type="line"/>
      <point x="744" y="0" type="line"/>
      <point x="744" y="1097" type="line"/>
      <point x="380" y="1097" type="line"/>
      <point x="77" y="952" type="line"/>
      <point x="180" y="705" type="line"/>
      <point x="356" y="784" type="line"/>
    </contour>
  </outline>
</glyph>
<glyph name="three" format="1">
  <advance width="1184"/>
  <unicode hex="0033"/>
  <outline>
    <contour>
      <point x="659" y="218" type="curve" smooth="yes"/>
      <point x="659" y="127"/>
      <point x="590" y="89"/>
      <point x="496" y="89" type="curve" smooth="yes"/>
      <point x="424" y="89"/>
      <point x="338" y="111"/>
      <point x="258" y="153" type="curve"/>
      <point x="167" y="-110" type="line"/>
      <point x="296" y="-163"/>
      <point x="442" y="-195"/>
      <point x="576" y="-195" type="curve" smooth="yes"/>
      <point x="822" y="-195"/>
      <point x="1030" y="-87"/>
      <point x="1030" y="198" type="curve" smooth="yes"/>
      <point x="1030" y="258"/>
      <point x="1002" y="457"/>
      <point x="787" y="493" type="curve"/>
      <point x="913" y="522"/>
      <point x="985" y="654"/>
      <point x="985" y="777" type="curve" smooth="yes"/>
      <point x="985" y="1016"/>
      <point x="797" y="1116"/>
      <point x="570" y="1116" type="curve" smooth="yes"/>
      <point x="426" y="1116"/>
      <point x="265" y="1075"/>
      <point x="131" y="1006" type="curve"/>
      <point x="254" y="754" type="line"/>
      <point x="345" y="804"/>
      <point x="432" y="828"/>
      <point x="500" y="828" type="curve" smooth="yes"/>
      <point x="605" y="828"/>
      <point x="640" y="777"/>
      <point x="640" y="722" type="curve" smooth="yes"/>
      <point x="640" y="637"/>
      <point x="556" y="595"/>
      <point x="393" y="595" type="curve"/>
      <point x="393" y="359" type="line"/>
      <point x="459" y="362"/>
      <point x="659" y="319"/>
    </contour>
  </outline>
</glyph>
<glyph name="four" format="1">
  <advance width="1220"/>
  <unicode hex="0034"/>
  <outline>
    <contour>
      <point x="631" y="-189" type="line"/>
      <point x="946" y="-189" type="line"/>
      <point x="946" y="53" type="line"/>
      <point x="1114" y="53" type="line"/>
      <point x="1114" y="311" type="line"/>
      <point x="946" y="311" type="line"/>
      <point x="946" y="1081" type="line"/>
      <point x="675" y="1153" type="line"/>
      <point x="75" y="266" type="line"/>
      <point x="118" y="53" type="line"/>
      <point x="631" y="53" type="line"/>
    </contour>
    <contour>
      <point x="415" y="311" type="line"/>
      <point x="631" y="687" type="line"/>
      <point x="631" y="311" type="line"/>
    </contour>
  </outline>
</glyph>
<glyph name="colon" format="1">
  <advance width="801"/>
  <unicode hex="003A"/>
  <outline>
    <contour>
      <point x="189" y="0" type="line"/>
      <point x="613" y="0" type="line"/>
      <point x="613" y="463" type="line"/>
      <point x="189" y="463" type="line"/>
    </contour>
    <contour>
      <point x="189" y="751" type="line"/>
      <point x="613" y="751" type="line"/>
      <point x="613" y="1210" type="line"/>
      <point x="189" y="1210" type="line"/>
    </contour>
  </outline>
</glyph>
<glyph name="semicolon" format="1">
  <advance width="786"/>
  <unicode hex="003B"/>
  <outline>
    <contour>
      <point x="270" y="-310" type="line"/>
      <point x="436" y="-260"/>
      <point x="646" y="-205"/>
      <point x="646" y="53" type="curve" smooth="yes"/>
      <point x="646" y="437" type="line"/>
      <point x="207" y="437" type="line"/>
      <point x="207" y="0" type="line"/>
      <point x="392" y="0" type="line"/>
      <point x="391" y="-99"/>
      <point x="343" y="-146"/>
      <point x="208" y="-195" type="curve"/>
    </contour>
    <contour>
      <point x="203" y="751" type="line"/>
      <point x="644" y="751" type="line"/>
      <point x="644" y="1210" type="line"/>
      <point x="203" y="1210" type="line"/>
    </contour>
  </outline>
</glyph>
<glyph name="less" format="1">
  <advance width="1456"/>
  <unicode hex="003C"/>
  <outline>
    <contour>
      <point x="1154" y="69" type="line"/>
      <point x="1310" y="321" type="line"/>
      <point x="683" y="712" type="line"/>
      <point x="1310" y="1102" type="line"/>
      <point x="1154" y="1354" type="line"/>
      <point x="103" y="712" type="line"/>
    </contour>
  </outline>
</glyph>
<glyph name="question" format="1">
  <advance width="1062"/>
  <unicode hex="003F"/>
  <outline>
    <contour>
      <point x="215" y="557" type="line"/>
      <point x="541" y="557" type="line"/>
      <point x="541" y="656" type="line"/>
      <point x="885" y="731"/>
      <point x="1001" y="844"/>
      <point x="1001" y="1087" type="curve" smooth="yes"/>
      <point x="1001" y="1383"/>
      <point x="749" y="1505"/>
      <point x="464" y="1505" type="curve" smooth="yes"/>
      <point x="310" y="1505"/>
      <point x="147" y="1470"/>
      <point x="7" y="1407" type="curve"/>
      <point x="92" y="1128" type="line"/>
      <point x="162" y="1160"/>
      <point x="302" y="1195"/>
      <point x="422" y="1195" type="curve" smooth="yes"/>
      <point x="534" y="1195"/>
      <point x="627" y="1165"/>
      <point x="627" y="1075" type="curve" smooth="yes"/>
      <point x="627" y="933"/>
      <point x="425" y="874"/>
      <point x="215" y="831" type="curve"/>
    </contour>
    <contour>
      <point x="370" y="-20" type="curve" smooth="yes"/>
      <point x="488" y="-20"/>
      <point x="588" y="73"/>
      <point x="588" y="193" type="curve" smooth="yes"/>
      <point x="588" y="314"/>
      <point x="490" y="404"/>
      <point x="370" y="404" type="curve" smooth="yes"/>
      <point x="247" y="404"/>
      <point x="158" y="309"/>
      <point x="158" y="193" type="curve" smooth="yes"/>
      <point x="158" y="73"/>
      <point x="251" y="-20"/>
    </contour>
  </outline>
</glyph>
<glyph name="at" format="1">
  <advance width="1882"/>
  <unicode hex="0040"/>
  <outline>
    <contour>
      <point x="940" y="-148" type="curve" smooth="yes"/>
      <point x="1111" y="-148"/>
      <point x="1308" y="-113"/>
      <point x="1431" y="-59" type="curve"/>
      <point x="1373" y="112" type="line"/>
      <point x="1261" y="54"/>
      <point x="1092" y="19"/>
      <point x="940" y="19" type="curve" smooth="yes"/>
      <point x="522" y="19"/>
      <point x="294" y="265"/>
      <point x="294" y="685" type="curve" smooth="yes"/>
      <point x="294" y="1104"/>
      <point x="592" y="1370"/>
      <point x="1009" y="1370" type="curve" smooth="yes"/>
      <point x="1394" y="1370"/>
      <point x="1632" y="1154"/>
      <point x="1632" y="803" type="curve" smooth="yes"/>
      <point x="1632" y="537"/>
      <point x="1548" y="380"/>
      <point x="1436" y="380" type="curve" smooth="yes"/>
      <point x="1419" y="380"/>
      <point x="1407" y="393"/>
      <point x="1407" y="423" type="curve" smooth="yes"/>
      <point x="1407" y="428"/>
      <point x="1458" y="997"/>
      <point x="1458" y="1021" type="curve" smooth="yes"/>
      <point x="1458" y="1134"/>
      <point x="1312" y="1201"/>
      <point x="1096" y="1201" type="curve" smooth="yes"/>
      <point x="725" y="1201"/>
      <point x="457" y="980"/>
      <point x="457" y="629" type="curve" smooth="yes"/>
      <point x="457" y="379"/>
      <point x="581" y="214"/>
      <point x="820" y="214" type="curve" smooth="yes"/>
      <point x="1043" y="214"/>
      <point x="1225" y="373"/>
      <point x="1297" y="622" type="curve"/>
      <point x="1250" y="627" type="line"/>
      <point x="1247" y="571"/>
      <point x="1236" y="477"/>
      <point x="1236" y="409" type="curve" smooth="yes"/>
      <point x="1236" y="301"/>
      <point x="1307" y="228"/>
      <point x="1418" y="228" type="curve" smooth="yes"/>
      <point x="1669" y="228"/>
      <point x="1823" y="455"/>
      <point x="1823" y="803" type="curve" smooth="yes"/>
      <point x="1823" y="1251"/>
      <point x="1507" y="1537"/>
      <point x="1009" y="1537" type="curve" smooth="yes"/>
      <point x="466" y="1537"/>
      <point x="87" y="1199"/>
      <point x="87" y="680" type="curve" smooth="yes"/>
      <point x="87" y="163"/>
      <point x="403" y="-148"/>
    </contour>
    <contour>
      <point x="844" y="375" type="curve" smooth="yes"/>
      <point x="713" y="375"/>
      <point x="656" y="485"/>
      <point x="656" y="645" type="curve" smooth="yes"/>
      <point x="656" y="900"/>
      <point x="844" y="1053"/>
      <point x="1095" y="1055" type="curve" smooth="yes"/>
      <point x="1144" y="1055"/>
      <point x="1212" y="1043"/>
      <point x="1277" y="1022" type="curve"/>
      <point x="1231" y="619"/>
      <point x="1060" y="375"/>
    </contour>
  </outline>
</glyph>
<glyph name="C" format="1">
  <advance width="1299"/>
  <unicode hex="0043"/>
  <outline>
    <contour>
      <point x="805" y="1482" type="move" name="top"/>
    </contour>
    <contour>
      <point x="718" y="1" type="move" name="bot"/>
    </contour>
    <contour>
      <point x="803" y="-20" type="curve" smooth="yes"/>
      <point x="944" y="-20"/>
      <point x="1091" y="13"/>
      <point x="1229" y="80" type="curve"/>
      <point x="1125" y="341" type="line"/>
      <point x="1054" y="306"/>
      <point x="977" y="287"/>
      <point x="900" y="287" type="curve" smooth="yes"/>
      <point x="698" y="287"/>
      <point x="509" y="420"/>
      <point x="509" y="738" type="curve" smooth="yes"/>
      <point x="509" y="1070"/>
      <point x="692" y="1205"/>
      <point x="900" y="1205" type="curve" smooth="yes"/>
      <point x="978" y="1205"/>
      <point x="1062" y="1185"/>
      <point x="1139" y="1145" type="curve"/>
      <point x="1244" y="1407" type="line"/>
      <point x="1120" y="1470"/>
      <point x="975" y="1505"/>
      <point x="830" y="1505" type="curve" smooth="yes"/>
      <point x="461" y="1505"/>
      <point x="93" y="1289"/>
      <point x="93" y="748" type="curve" smooth="yes"/>
      <point x="93" y="223"/>
      <point x="426" y="-20"/>
    </contour>
  </outline>
</glyph>
<glyph name="D" format="1">
  <advance width="1580"/>
  <unicode hex="0044"/>
  <outline>
    <contour>
      <point x="782" y="1485" type="move" name="top"/>
    </contour>
    <contour>
      <point x="578" y="281" type="line"/>
      <point x="578" y="1206" type="line"/>
      <point x="628" y="1206" type="line" smooth="yes"/>
      <point x="962" y="1206"/>
      <point x="1078" y="1092"/>
      <point x="1078" y="740" type="curve" smooth="yes"/>
      <point x="1078" y="388"/>
      <point x="963" y="281"/>
      <point x="628" y="281" type="curve" smooth="yes"/>
    </contour>
    <contour>
      <point x="166" y="0" type="line"/>
      <point x="665" y="0" type="line" smooth="yes"/>
      <point x="1168" y="0"/>
      <point x="1494" y="207"/>
      <point x="1494" y="737" type="curve" smooth="yes"/>
      <point x="1494" y="1275"/>
      <point x="1181" y="1485"/>
      <point x="665" y="1485" type="curve" smooth="yes"/>
      <point x="166" y="1485" type="line"/>
    </contour>
  </outline>
</glyph>
<glyph name="F" format="1">
  <advance width="1192"/>
  <unicode hex="0046"/>
  <outline>
    <contour>
      <point x="722" y="1485" type="move" name="top"/>
    </contour>
    <contour>
      <point x="166" y="0" type="line"/>
      <point x="576" y="0" type="line"/>
      <point x="576" y="580" type="line"/>
      <point x="1104" y="580" type="line"/>
      <point x="1104" y="833" type="line"/>
      <point x="576" y="833" type="line"/>
      <point x="576" y="1186" type="line"/>
      <point x="1149" y="1186" type="line"/>
      <point x="1149" y="1485" type="line"/>
      <point x="166" y="1485" type="line"/>
    </contour>
  </outline>
</glyph>
<glyph name="G" format="1">
  <advance width="1501"/>
  <unicode hex="0047"/>
  <outline>
    <contour>
      <point x="784" y="1" type="move" name="bot"/>
    </contour>
    <contour>
      <point x="748" y="-20" type="curve" smooth="yes"/>
      <point x="930" y="-20"/>
      <point x="1040" y="72"/>
      <point x="1064" y="147" type="curve"/>
      <point x="1109" y="0" type="line"/>
      <point x="1363" y="0" type="line"/>
      <point x="1363" y="855" type="line"/>
      <point x="825" y="855" type="line"/>
      <point x="825" y="609" type="line"/>
      <point x="1032" y="609" type="line"/>
      <point x="1032" y="303" type="line"/>
      <point x="961" y="281"/>
      <point x="886" y="268"/>
      <point x="823" y="268" type="curve" smooth="yes"/>
      <point x="643" y="268"/>
      <point x="509" y="377"/>
      <point x="509" y="721" type="curve" smooth="yes"/>
      <point x="509" y="1088"/>
      <point x="640" y="1216"/>
      <point x="857" y="1216" type="curve" smooth="yes"/>
      <point x="1008" y="1216"/>
      <point x="1114" y="1166"/>
      <point x="1223" y="1106" type="curve"/>
      <point x="1329" y="1364" type="line"/>
      <point x="1183" y="1450"/>
      <point x="1004" y="1505"/>
      <point x="828" y="1505" type="curve" smooth="yes"/>
      <point x="444" y="1505"/>
      <point x="93" y="1303"/>
      <point x="93" y="722" type="curve" smooth="yes"/>
      <point x="93" y="215"/>
      <point x="381" y="-20"/>
    </contour>
  </outline>
</glyph>
<glyph name="I" format="1">
  <advance width="956"/>
  <unicode hex="0049"/>
  <outline>
    <contour>
      <point x="474" y="1485" type="move" name="top"/>
    </contour>
    <contour>
      <point x="112" y="0" type="line"/>
      <point x="845" y="0" type="line"/>
      <point x="845" y="272" type="line"/>
      <point x="684" y="272" type="line"/>
      <point x="684" y="1215" type="line"/>
      <point x="845" y="1215" type="line"/>
      <point x="845" y="1485" type="line"/>
      <point x="112" y="1485" type="line"/>
      <point x="112" y="1215" type="line"/>
      <point x="272" y="1215" type="line"/>
      <point x="272" y="272" type="line"/>
      <point x="112" y="272" type="line"/>
    </contour>
  </outline>
</glyph>
<glyph name="K" format="1">
  <advance width="1463"/>
  <unicode hex="004B"/>
  <outline>
    <contour>
      <point x="760" y="1485" type="move" name="top"/>
    </contour>
    <contour>
      <point x="776" y="0" type="move" name="bot"/>
    </contour>
    <contour>
      <point x="166" y="0" type="line"/>
      <point x="578" y="0" type="line"/>
      <point x="578" y="638" type="line"/>
      <point x="595" y="638" type="line"/>
      <point x="1004" y="0" type="line"/>
      <point x="1491" y="0" type="line"/>
      <point x="993" y="737" type="line"/>
      <point x="1463" y="1485" type="line"/>
      <point x="1006" y="1485" type="line"/>
      <point x="601" y="841" type="line"/>
      <point x="578" y="841" type="line"/>
      <point x="578" y="1485" type="line"/>
      <point x="166" y="1485" type="line"/>
    </contour>
  </outline>
</glyph>
<glyph name="M" format="1">
  <advance width="1961"/>
  <unicode hex="004D"/>
  <outline>
    <contour>
      <point x="987" y="1485" type="move" name="top"/>
    </contour>
    <contour>
      <point x="166" y="0" type="line"/>
      <point x="504" y="0" type="line"/>
      <point x="504" y="910" type="line"/>
      <point x="791" y="0" type="line"/>
      <point x="1181" y="0" type="line"/>
      <point x="1458" y="910" type="line"/>
      <point x="1458" y="0" type="line"/>
      <point x="1796" y="0" type="line"/>
      <point x="1796" y="1485" type="line"/>
      <point x="1327" y="1485" type="line"/>
      <point x="972" y="458" type="line"/>
      <point x="633" y="1485" type="line"/>
      <point x="166" y="1485" type="line"/>
    </contour>
  </outline>
</glyph>
<glyph name="N" format="1">
  <advance width="1619"/>
  <unicode hex="004E"/>
  <outline>
    <contour>
      <point x="835" y="1485" type="move" name="top"/>
    </contour>
    <contour>
      <point x="870" y="0" type="move" name="bot"/>
    </contour>
    <contour>
      <point x="166" y="0" type="line"/>
      <point x="534" y="0" type="line"/>
      <point x="534" y="894" type="line"/>
      <point x="1050" y="0" type="line"/>
      <point x="1453" y="0" type="line"/>
      <point x="1453" y="1485" type="line"/>
      <point x="1088" y="1485" type="line"/>
      <point x="1088" y="616" type="line"/>
      <point x="587" y="1485" type="line"/>
      <point x="166" y="1485" type="line"/>
    </contour>
  </outline>
</glyph>
<glyph name="P" format="1">
  <advance width="1416"/>
  <unicode hex="0050"/>
  <outline>
    <contour>
      <point x="599" y="1485" type="move" name="top"/>
    </contour>
    <contour>
      <point x="166" y="0" type="line"/>
      <point x="578" y="0" type="line"/>
      <point x="578" y="603" type="line"/>
      <point x="613" y="603" type="line" smooth="yes"/>
      <point x="1177" y="603"/>
      <point x="1360" y="725"/>
      <point x="1360" y="1110" type="curve" smooth="yes"/>
      <point x="1360" y="1398"/>
      <point x="1185" y="1485"/>
      <point x="644" y="1485" type="curve" smooth="yes"/>
      <point x="166" y="1485" type="line"/>
    </contour>
    <contour>
      <point x="578" y="864" type="line"/>
      <point x="578" y="1243" type="line"/>
      <point x="627" y="1243" type="line" smooth="yes"/>
      <point x="867" y="1243"/>
      <point x="944" y="1207"/>
      <point x="944" y="1074" type="curve" smooth="yes"/>
      <point x="944" y="915"/>
      <point x="863" y="864"/>
      <point x="613" y="864" type="curve" smooth="yes"/>
    </contour>
  </outline>
</glyph>
<glyph name="Q" format="1">
  <advance width="1578"/>
  <unicode hex="0051"/>
  <outline>
    <contour>
      <point x="1043" y="-433" type="line"/>
      <point x="1247" y="-247" type="line"/>
      <point x="1046" y="16" type="line"/>
      <point x="1340" y="102"/>
      <point x="1486" y="355"/>
      <point x="1486" y="749" type="curve" smooth="yes"/>
      <point x="1486" y="1256"/>
      <point x="1239" y="1505"/>
      <point x="790" y="1505" type="curve" smooth="yes"/>
      <point x="338" y="1505"/>
      <point x="93" y="1268"/>
      <point x="93" y="749" type="curve" smooth="yes"/>
      <point x="93" y="283"/>
      <point x="297" y="16"/>
      <point x="709" y="-14" type="curve"/>
    </contour>
    <contour>
      <point x="790" y="266" type="curve" smooth="yes"/>
      <point x="575" y="266"/>
      <point x="508" y="466"/>
      <point x="508" y="749" type="curve" smooth="yes"/>
      <point x="508" y="1035"/>
      <point x="575" y="1216"/>
      <point x="790" y="1216" type="curve" smooth="yes"/>
      <point x="1003" y="1216"/>
      <point x="1070" y="1037"/>
      <point x="1070" y="749" type="curve" smooth="yes"/>
      <point x="1070" y="475"/>
      <point x="1009" y="266"/>
    </contour>
  </outline>
</glyph>
<glyph name="S" format="1">
  <advance width="1281"/>
  <unicode hex="0053"/>
  <outline>
    <contour>
      <point x="636" y="1485" type="move" name="top"/>
    </contour>
    <contour>
      <point x="654" y="0" type="move" name="bot"/>
    </contour>
    <contour>
      <point x="823" y="432" type="curve" smooth="yes"/>
      <point x="823" y="332"/>
      <point x="757" y="292"/>
      <point x="639" y="292" type="curve" smooth="yes"/>
      <point x="502" y="292"/>
      <point x="326" y="348"/>
      <point x="222" y="410" type="curve"/>
      <point x="109" y="117" type="line"/>
      <point x="286" y="22"/>
      <point x="469" y="-20"/>
      <point x="651" y="-20" type="curve" smooth="yes"/>
      <point x="1077" y="-20"/>
      <point x="1190" y="227"/>
      <point x="1190" y="457" type="curve" smooth="yes"/>
      <point x="1190" y="637"/>
      <point x="1156" y="784"/>
      <point x="863" y="889" type="curve" smooth="yes"/>
      <point x="573" y="993" type="line" smooth="yes"/>
      <point x="519" y="1013"/>
      <point x="497" y="1047"/>
      <point x="497" y="1080" type="curve" smooth="yes"/>
      <point x="497" y="1162"/>
      <point x="545" y="1190"/>
      <point x="653" y="1190" type="curve" smooth="yes"/>
      <point x="763" y="1190"/>
      <point x="910" y="1150"/>
      <point x="1028" y="1107" type="curve"/>
      <point x="1143" y="1376" type="line"/>
      <point x="991" y="1453"/>
      <point x="795" y="1505"/>
      <point x="626" y="1505" type="curve" smooth="yes"/>
      <point x="346" y="1505"/>
      <point x="107" y="1388"/>
      <point x="107" y="1076" type="curve" smooth="yes"/>
      <point x="107" y="878"/>
      <point x="204" y="741"/>
      <point x="437" y="656" type="curve" smooth="yes"/>
      <point x="700" y="560" type="line" smooth="yes"/>
      <point x="793" y="527"/>
      <point x="823" y="491"/>
    </contour>
  </outline>
</glyph>
<glyph name="U" format="1">
  <advance width="1600"/>
  <unicode hex="0055"/>
  <outline>
    <contour>
      <point x="805" y="1485" type="move" name="top"/>
    </contour>
    <contour>
      <point x="796" y="-21" type="curve" smooth="yes"/>
      <point x="1291" y="-21"/>
      <point x="1450" y="181"/>
      <point x="1450" y="693" type="curve" smooth="yes"/>
      <point x="1450" y="1485" type="line"/>
      <point x="1038" y="1485" type="line"/>
      <point x="1038" y="674" type="line" smooth="yes"/>
      <point x="1038" y="358"/>
      <point x="979" y="276"/>
      <point x="796" y="276" type="curve" smooth="yes"/>
      <point x="621" y="276"/>
      <point x="564" y="358"/>
      <point x="564" y="674" type="curve" smooth="yes"/>
      <point x="564" y="1485" type="line"/>
      <point x="151" y="1485" type="line"/>
      <point x="151" y="693" type="line" smooth="yes"/>
      <point x="151" y="181"/>
      <point x="308" y="-21"/>
    </contour>
  </outline>
</glyph>
<glyph name="W" format="1">
  <advance width="2067"/>
  <unicode hex="0057"/>
  <outline>
    <contour>
      <point x="1044" y="1485" type="move" name="top"/>
    </contour>
    <contour>
      <point x="373" y="0" type="line"/>
      <point x="789" y="0" type="line"/>
      <point x="1034" y="919" type="line"/>
      <point x="1257" y="0" type="line"/>
      <point x="1680" y="0" type="line"/>
      <point x="1998" y="1485" type="line"/>
      <point x="1616" y="1485" type="line"/>
      <point x="1442" y="527" type="line"/>
      <point x="1223" y="1382" type="line"/>
      <point x="845" y="1382" type="line"/>
      <point x="613" y="527" type="line"/>
      <point x="452" y="1485" type="line"/>
      <point x="70" y="1485" type="line"/>
    </contour>
  </outline>
</glyph>
<glyph name="X" format="1">
  <advance width="1424"/>
  <unicode hex="0058"/>
  <outline>
    <contour>
      <point x="30" y="0" type="line"/>
      <point x="434" y="0" type="line"/>
      <point x="703" y="432" type="line"/>
      <point x="961" y="0" type="line"/>
      <point x="1394" y="0" type="line"/>
      <point x="940" y="748" type="line"/>
      <point x="1394" y="1485" type="line"/>
      <point x="992" y="1485" type="line"/>
      <point x="730" y="1040" type="line"/>
      <point x="460" y="1485" type="line"/>
      <point x="30" y="1485" type="line"/>
      <point x="482" y="752" type="line"/>
    </contour>
  </outline>
</glyph>
<glyph name="Z" format="1">
  <advance width="1176"/>
  <unicode hex="005A"/>
  <outline>
    <contour>
      <point x="580" y="1485" type="move" name="top"/>
    </contour>
    <contour>
      <point x="85" y="0" type="line"/>
      <point x="1112" y="0" type="line"/>
      <point x="1112" y="299" type="line"/>
      <point x="535" y="299" type="line"/>
      <point x="1103" y="1250" type="line"/>
      <point x="1103" y="1485" type="line"/>
      <point x="90" y="1485" type="line"/>
      <point x="90" y="1182" type="line"/>
      <point x="655" y="1182" type="line"/>
      <point x="85" y="263" type="line"/>
    </contour>
  </outline>
</glyph>
<glyph name="backslash" format="1">
  <advance width="1287"/>
  <unicode hex="005C"/>
  <outline>
    <contour>
      <point x="752" y="-129" type="line"/>
      <point x="1113" y="-6" type="line"/>
      <point x="593" y="1578" type="line"/>
      <point x="230" y="1454" type="line"/>
    </contour>
  </outline>
</glyph>
<glyph name="bracketright" format="1">
  <advance width="1000"/>
  <unicode hex="005D"/>
  <outline>
    <contour>
      <point x="94" y="-115" type="line"/>
      <point x="834" y="-115" type="line"/>
      <point x="834" y="1688" type="line"/>
      <point x="94" y="1688" type="line"/>
      <point x="94" y="1491" type="line"/>
      <point x="470" y="1491" type="line"/>
      <point x="470" y="81" type="line"/>
      <point x="94" y="81" type="line"/>
    </contour>
  </outline>
</glyph>
<glyph name="asciicircum" format="1">
  <advance width="1289"/>
  <unicode hex="005E"/>
  <outline>
    <contour>
      <point x="76" y="566" type="line"/>
      <point x="386" y="566" type="line"/>
      <point x="644" y="1163" type="line"/>
      <point x="902" y="566" type="line"/>
      <point x="1214" y="566" type="line"/>
      <point x="794" y="1491" type="line"/>
      <point x="496" y="1491" type="line"/>
    </contour>
  </outline>
</glyph>
<glyph name="underscore" format="1">
  <advance width="1047"/>
  <unicode hex="005F"/>
  <outline>
    <contour>
      <point x="43" y="-351" type="line"/>
      <point x="1005" y="-351" type="line"/>
      <point x="1005" y="-60" type="line"/>
      <point x="43" y="-60" type="line"/>
    </contour>
  </outline>
</glyph>
<glyph name="grave" format="1">
  <advance width="972"/>
  <unicode hex="0060"/>
  <outline>
    <contour>
      <point x="504" y="1098" type="move" name="_top"/>
    </contour>
    <contour>
      <point x="534" y="1271" type="line"/>
      <point x="661" y="1431" type="line"/>
      <point x="180" y="1850" type="line"/>
      <point x="-17" y="1591" type="line"/>
    </contour>
  </outline>
</glyph>
<glyph name="a" format="1">
  <advance width="1218"/>
  <unicode hex="0061"/>
  <outline>
    <contour>
      <point x="619" y="1099" type="move" name="top"/>
    </contour>
    <contour>
      <point x="74" y="326" type="curve" smooth="yes"/>
      <point x="74" y="89"/>
      <point x="225" y="-20"/>
      <point x="451" y="-20" type="curve" smooth="yes"/>
      <point x="621" y="-20"/>
      <point x="703" y="93"/>
      <point x="726" y="165" type="curve"/>
      <point x="788" y="0" type="line"/>
      <point x="1091" y="0" type="line"/>
      <point x="1091" y="643" type="line" smooth="yes"/>
      <point x="1091" y="970"/>
      <point x="935" y="1116"/>
      <point x="621" y="1116" type="curve" smooth="yes"/>
      <point x="489" y="1116"/>
      <point x="319" y="1088"/>
      <point x="139" y="1026" type="curve"/>
      <point x="206" y="787" type="line"/>
      <point x="343" y="841"/>
      <point x="450" y="860"/>
      <point x="526" y="860" type="curve" smooth="yes"/>
      <point x="659" y="860"/>
      <point x="705" y="798"/>
      <point x="705" y="686" type="curve" smooth="yes"/>
      <point x="705" y="641" type="line"/>
      <point x="644" y="658"/>
      <point x="565" y="663"/>
      <point x="499" y="663" type="curve" smooth="yes"/>
      <point x="308" y="663"/>
      <point x="74" y="598"/>
    </contour>
    <contour>
      <point x="534" y="209" type="curve" smooth="yes"/>
      <point x="441" y="209"/>
      <point x="399" y="270"/>
      <point x="399" y="354" type="curve" smooth="yes"/>
      <point x="399" y="451"/>
      <point x="486" y="478"/>
      <point x="576" y="478" type="curve" smooth="yes"/>
      <point x="609" y="478"/>
      <point x="673" y="474"/>
      <point x="705" y="467" type="curve"/>
      <point x="705" y="284" type="line"/>
      <point x="655" y="243"/>
      <point x="604" y="209"/>
    </contour>
  </outline>
</glyph>
<glyph name="b" format="1">
  <advance width="1347"/>
  <unicode hex="0062"/>
  <outline>
    <contour>
      <point x="807" y="1099" type="move" name="top"/>
    </contour>
    <contour>
      <point x="804" y="-20" type="curve" smooth="yes"/>
      <point x="1036" y="-20"/>
      <point x="1270" y="157"/>
      <point x="1270" y="556" type="curve" smooth="yes"/>
      <point x="1270" y="928"/>
      <point x="1094" y="1116"/>
      <point x="851" y="1116" type="curve" smooth="yes"/>
      <point x="735" y="1116"/>
      <point x="625" y="1085"/>
      <point x="529" y="1016" type="curve"/>
      <point x="529" y="1556" type="line"/>
      <point x="138" y="1491" type="line"/>
      <point x="138" y="0" type="line"/>
      <point x="408" y="0" type="line"/>
      <point x="462" y="127" type="line"/>
      <point x="550" y="47"/>
      <point x="666" y="-20"/>
    </contour>
    <contour>
      <point x="684" y="216" type="curve" smooth="yes"/>
      <point x="631" y="216"/>
      <point x="578" y="244"/>
      <point x="529" y="285" type="curve"/>
      <point x="529" y="802" type="line"/>
      <point x="600" y="860"/>
      <point x="658" y="877"/>
      <point x="718" y="877" type="curve" smooth="yes"/>
      <point x="813" y="877"/>
      <point x="881" y="805"/>
      <point x="881" y="553" type="curve" smooth="yes"/>
      <point x="881" y="287"/>
      <point x="771" y="216"/>
    </contour>
  </outline>
</glyph>
<glyph name="d" format="1">
  <advance width="1332"/>
  <unicode hex="0064"/>
  <outline>
    <contour>
      <point x="522" y="1099" type="move" name="top"/>
    </contour>
    <contour>
      <point x="1124" y="1098" type="move" name="caron.alt"/>
    </contour>
    <contour>
      <point x="1003" y="1313" type="move" name="mid"/>
    </contour>
    <contour>
      <point x="543" y="-20" type="curve" smooth="yes"/>
      <point x="677" y="-20"/>
      <point x="790" y="42"/>
      <point x="877" y="119" type="curve"/>
      <point x="930" y="0" type="line"/>
      <point x="1200" y="0" type="line"/>
      <point x="1200" y="1556" type="line"/>
      <point x="809" y="1491" type="line"/>
      <point x="809" y="1023" type="line"/>
      <point x="715" y="1087"/>
      <point x="608" y="1116"/>
      <point x="496" y="1116" type="curve" smooth="yes"/>
      <point x="253" y="1116"/>
      <point x="77" y="925"/>
      <point x="77" y="556" type="curve" smooth="yes"/>
      <point x="77" y="157"/>
      <point x="311" y="-20"/>
    </contour>
    <contour>
      <point x="663" y="216" type="curve" smooth="yes"/>
      <point x="576" y="216"/>
      <point x="467" y="287"/>
      <point x="467" y="553" type="curve" smooth="yes"/>
      <point x="467" y="805"/>
      <point x="534" y="874"/>
      <point x="629" y="874" type="curve" smooth="yes"/>
      <point x="687" y="874"/>
      <point x="743" y="858"/>
      <point x="809" y="807" type="curve"/>
      <point x="809" y="275" type="line"/>
      <point x="762" y="238"/>
      <point x="712" y="216"/>
    </contour>
  </outline>
</glyph>
<glyph name="e" format="1">
  <advance width="1186"/>
  <unicode hex="0065"/>
  <outline>
    <contour>
      <point x="663" y="1099" type="move" name="top"/>
    </contour>
    <contour>
      <point x="670" y="-3" type="move" name="bot"/>
    </contour>
    <contour>
      <point x="680" y="-20" type="curve" smooth="yes"/>
      <point x="815" y="-20"/>
      <point x="962" y="9"/>
      <point x="1091" y="89" type="curve"/>
      <point x="1008" y="313" type="line"/>
      <point x="920" y="269"/>
      <point x="833" y="243"/>
      <point x="722" y="243" type="curve" smooth="yes"/>
      <point x="607" y="243"/>
      <point x="484" y="287"/>
      <point x="472" y="452" type="curve"/>
      <point x="1091" y="452" type="line"/>
      <point x="1101" y="584"/>
      <point x="1101" y="606"/>
      <point x="1101" y="626" type="curve" smooth="yes"/>
      <point x="1101" y="944"/>
      <point x="925" y="1116"/>
      <point x="655" y="1116" type="curve" smooth="yes"/>
      <point x="308" y="1116"/>
      <point x="77" y="906"/>
      <point x="77" y="541" type="curve" smooth="yes"/>
      <point x="77" y="188"/>
      <point x="292" y="-20"/>
    </contour>
    <contour>
      <point x="477" y="661" type="line"/>
      <point x="477" y="798"/>
      <point x="545" y="871"/>
      <point x="644" y="871" type="curve" smooth="yes"/>
      <point x="718" y="871"/>
      <point x="780" y="815"/>
      <point x="780" y="693" type="curve" smooth="yes"/>
      <point x="780" y="661" type="line"/>
    </contour>
  </outline>
</glyph>
<glyph name="h" format="1">
  <advance width="1329"/>
  <unicode hex="0068"/>
  <outline>
    <contour>
      <point x="833" y="1099" type="move" name="top"/>
    </contour>
    <contour>
      <point x="136" y="0" type="line"/>
      <point x="525" y="0" type="line"/>
      <point x="525" y="766" type="line"/>
      <point x="587" y="824"/>
      <point x="648" y="851"/>
      <point x="698" y="851" type="curve" smooth="yes"/>
      <point x="770" y="851"/>
      <point x="814" y="827"/>
      <point x="814" y="693" type="curve" smooth="yes"/>
      <point x="814" y="0" type="line"/>
      <point x="1203" y="0" type="line"/>
      <point x="1203" y="713" type="line" smooth="yes"/>
      <point x="1203" y="1075"/>
      <point x="987" y="1116"/>
      <point x="848" y="1116" type="curve" smooth="yes"/>
      <point x="729" y="1116"/>
      <point x="617" y="1073"/>
      <point x="525" y="1011" type="curve"/>
      <point x="525" y="1556" type="line"/>
      <point x="136" y="1491" type="line"/>
    </contour>
  </outline>
</glyph>
<glyph name="j" format="1">
  <advance width="755"/>
  <unicode hex="006A"/>
  <outline>
    <contour>
      <point x="140" y="-472" type="line"/>
      <point x="438" y="-400"/>
      <point x="606" y="-298"/>
      <point x="606" y="0" type="curve" smooth="yes"/>
      <point x="606" y="1096" type="line"/>
      <point x="216" y="1096" type="line"/>
      <point x="216" y="132" type="line" smooth="yes"/>
      <point x="216" y="-86"/>
      <point x="216" y="-119"/>
      <point x="11" y="-205" type="curve"/>
    </contour>
    <contour>
      <point x="410" y="1262" type="curve" smooth="yes"/>
      <point x="530" y="1262"/>
      <point x="628" y="1352"/>
      <point x="628" y="1473" type="curve" smooth="yes"/>
      <point x="628" y="1593"/>
      <point x="528" y="1686"/>
      <point x="410" y="1686" type="curve" smooth="yes"/>
      <point x="291" y="1686"/>
      <point x="198" y="1593"/>
      <point x="198" y="1473" type="curve" smooth="yes"/>
      <point x="198" y="1357"/>
      <point x="287" y="1262"/>
    </contour>
  </outline>
</glyph>
<glyph name="l" format="1">
  <advance width="675"/>
  <unicode hex="006C"/>
  <outline>
    <contour>
      <point x="321" y="1491" type="move" name="top"/>
    </contour>
    <contour>
      <point x="541" y="1104" type="move" name="caron.alt"/>
    </contour>
    <contour>
      <point x="146" y="0" type="line"/>
      <point x="536" y="0" type="line"/>
      <point x="536" y="1556" type="line"/>
      <point x="146" y="1491" type="line"/>
    </contour>
  </outline>
</glyph>
<glyph name="m" format="1">
  <advance width="1975"/>
  <unicode hex="006D"/>
  <outline>
    <contour>
      <point x="1117" y="1099" type="move" name="top"/>
    </contour>
    <contour>
      <point x="136" y="0" type="line"/>
      <point x="525" y="0" type="line"/>
      <point x="525" y="770" type="line"/>
      <point x="572" y="829"/>
      <point x="624" y="862"/>
      <point x="680" y="862" type="curve" smooth="yes"/>
      <point x="752" y="861"/>
      <point x="800" y="836"/>
      <point x="800" y="702" type="curve" smooth="yes"/>
      <point x="800" y="0" type="line"/>
      <point x="1190" y="0" type="line"/>
      <point x="1190" y="700" type="line" smooth="yes"/>
      <point x="1190" y="730"/>
      <point x="1188" y="759"/>
      <point x="1185" y="785" type="curve"/>
      <point x="1229" y="836"/>
      <point x="1280" y="862"/>
      <point x="1340" y="862" type="curve" smooth="yes"/>
      <point x="1412" y="861"/>
      <point x="1460" y="836"/>
      <point x="1460" y="702" type="curve" smooth="yes"/>
      <point x="1460" y="0" type="line"/>
      <point x="1849" y="0" type="line"/>
      <point x="1849" y="700" type="line" smooth="yes"/>
      <point x="1849" y="1062"/>
      <point x="1628" y="1116"/>
      <point x="1489" y="1116" type="curve" smooth="yes"/>
      <point x="1350" y="1116"/>
      <point x="1227" y="1054"/>
      <point x="1133" y="960" type="curve"/>
      <point x="1057" y="1090"/>
      <point x="924" y="1116"/>
      <point x="830" y="1116" type="curve" smooth="yes"/>
      <point x="695" y="1116"/>
      <point x="575" y="1052"/>
      <point x="481" y="960" type="curve"/>
      <point x="433" y="1096" type="line"/>
      <point x="136" y="1096" type="line"/>
    </contour>
  </outline>
</glyph>
<glyph name="q" format="1">
  <advance width="1312"/>
  <unicode hex="0071"/>
  <outline>
    <contour>
      <point x="1175" y="-431" type="line"/>
      <point x="1175" y="1096" type="line"/>
      <point x="904" y="1096" type="line"/>
      <point x="855" y="987" type="line"/>
      <point x="749" y="1077"/>
      <point x="627" y="1116"/>
      <point x="496" y="1116" type="curve" smooth="yes"/>
      <point x="253" y="1116"/>
      <point x="77" y="925"/>
      <point x="77" y="556" type="curve" smooth="yes"/>
      <point x="77" y="159"/>
      <point x="311" y="-20"/>
      <point x="543" y="-20" type="curve" smooth="yes"/>
      <point x="633" y="-20"/>
      <point x="713" y="7"/>
      <point x="783" y="48" type="curve"/>
      <point x="783" y="-488" type="line"/>
    </contour>
    <contour>
      <point x="663" y="218" type="curve" smooth="yes"/>
      <point x="576" y="218"/>
      <point x="467" y="288"/>
      <point x="467" y="553" type="curve" smooth="yes"/>
      <point x="467" y="802"/>
      <point x="534" y="873"/>
      <point x="629" y="873" type="curve" smooth="yes"/>
      <point x="679" y="873"/>
      <point x="728" y="861"/>
      <point x="783" y="825" type="curve"/>
      <point x="783" y="259" type="line"/>
      <point x="744" y="233"/>
      <point x="704" y="218"/>
    </contour>
  </outline>
</glyph>
<glyph name="t" format="1">
  <advance width="969"/>
  <unicode hex="0074"/>
  <outline>
    <contour>
      <point x="380" y="1491" type="move" name="top"/>
    </contour>
    <contour>
      <point x="463" y="1482" type="move" name="caron.alt"/>
    </contour>
    <contour>
      <point x="576" y="0" type="move" name="bot"/>
    </contour>
    <contour>
      <point x="639" y="-11" type="curve" smooth="yes"/>
      <point x="740" y="-11"/>
      <point x="842" y="10"/>
      <point x="928" y="45" type="curve"/>
      <point x="874" y="291" type="line"/>
      <point x="830" y="280"/>
      <point x="778" y="269"/>
      <point x="731" y="269" type="curve" smooth="yes"/>
      <point x="652" y="269"/>
      <point x="585" y="300"/>
      <point x="585" y="403" type="curve" smooth="yes"/>
      <point x="585" y="891" type="line"/>
      <point x="882" y="891" type="line"/>
      <point x="882" y="1096" type="line"/>
      <point x="585" y="1096" type="line"/>
      <point x="585" y="1523" type="line"/>
      <point x="232" y="1442" type="line"/>
      <point x="210" y="1096" type="line"/>
      <point x="15" y="1096" type="line"/>
      <point x="15" y="891" type="line"/>
      <point x="197" y="891" type="line"/>
      <point x="197" y="422" type="line" smooth="yes"/>
      <point x="197" y="99"/>
      <point x="413" y="-11"/>
    </contour>
  </outline>
</glyph>
<glyph name="y" format="1">
  <advance width="1233"/>
  <unicode hex="0079"/>
  <outline>
    <contour>
      <point x="630" y="1096" type="move" name="top"/>
    </contour>
    <contour>
      <point x="232" y="-547" type="line"/>
      <point x="584" y="-518"/>
      <point x="716" y="-375"/>
      <point x="830" y="-28" type="curve" smooth="yes"/>
      <point x="1200" y="1096" type="line"/>
      <point x="831" y="1096" type="line"/>
      <point x="655" y="482" type="line"/>
      <point x="435" y="1096" type="line"/>
      <point x="39" y="1096" type="line"/>
      <point x="474" y="48" type="line"/>
      <point x="425" y="-155"/>
      <point x="365" y="-249"/>
      <point x="120" y="-283" type="curve"/>
    </contour>
  </outline>
</glyph>
<glyph name="z" format="1">
  <advance width="1002"/>
  <unicode hex="007A"/>
  <outline>
    <contour>
      <point x="532" y="1096" type="move" name="top"/>
    </contour>
    <contour>
      <point x="89" y="0" type="line"/>
      <point x="934" y="0" type="line"/>
      <point x="934" y="293" type="line"/>
      <point x="526" y="293" type="line"/>
      <point x="919" y="854" type="line"/>
      <point x="919" y="1096" type="line"/>
      <point x="94" y="1096" type="line"/>
      <point x="94" y="800" type="line"/>
      <point x="487" y="800" type="line"/>
      <point x="89" y="245" type="line"/>
    </contour>
  </outline>
</glyph>
<glyph name="braceright" format="1">
  <advance width="1040"/>
  <unicode hex="007D"/>
  <outline>
    <contour>
      <point x="106" y="-249" type="line"/>
      <point x="582" y="-249"/>
      <point x="767" y="-171"/>
      <point x="767" y="260" type="curve" smooth="yes"/>
      <point x="767" y="477"/>
      <point x="768" y="534"/>
      <point x="971" y="568" type="curve"/>
      <point x="971" y="767" type="line"/>
      <point x="768" y="803"/>
      <point x="767" y="860"/>
      <point x="767" y="1076" type="curve" smooth="yes"/>
      <point x="767" y="1507"/>
      <point x="582" y="1586"/>
      <point x="106" y="1586" type="curve"/>
      <point x="106" y="1337" type="line"/>
      <point x="293" y="1317"/>
      <point x="331" y="1309"/>
      <point x="331" y="1103" type="curve" smooth="yes"/>
      <point x="334" y="765"/>
      <point x="449" y="704"/>
      <point x="563" y="668" type="curve"/>
      <point x="449" y="631"/>
      <point x="334" y="571"/>
      <point x="331" y="233" type="curve" smooth="yes"/>
      <point x="331" y="23"/>
      <point x="293" y="19"/>
      <point x="106" y="-1" type="curve"/>
    </contour>
  </outline>
</glyph>
<glyph name="cent" format="1">
  <advance width="1065"/>
  <unicode hex="00A2"/>
  <outline>
    <contour>
      <point x="584" y="-194" type="line"/>
      <point x="714" y="-194" type="line"/>
      <point x="714" y="1361" type="line"/>
      <point x="584" y="1361" type="line"/>
    </contour>
    <component base="c" yScale="0.95" yOffset="54"/>
  </outline>
</glyph>
<glyph name="yen" format="1">
  <advance width="1357"/>
  <unicode hex="00A5"/>
  <outline>
    <contour>
      <point x="1349" y="1485" type="line"/>
      <point x="945" y="1485" type="line"/>
      <point x="680" y="914" type="line"/>
      <point x="420" y="1485" type="line"/>
      <point x="8" y="1485" type="line"/>
      <point x="358" y="759" type="line"/>
      <point x="159" y="759" type="line"/>
      <point x="159" y="640" type="line"/>
      <point x="407" y="640" type="line"/>
      <point x="470" y="485" type="line"/>
      <point x="159" y="485" type="line"/>
      <point x="159" y="364" type="line"/>
      <point x="470" y="364" type="line"/>
      <point x="470" y="0" type="line"/>
      <point x="872" y="0" type="line"/>
      <point x="872" y="364" type="line"/>
      <point x="1177" y="364" type="line"/>
      <point x="1177" y="485" type="line"/>
      <point x="872" y="485" type="line"/>
      <point x="931" y="640" type="line"/>
      <point x="1177" y="640" type="line"/>
      <point x="1177" y="759" type="line"/>
      <point x="982" y="759" type="line"/>
    </contour>
  </outline>
</glyph>
<glyph name="brokenbar" format="1">
  <advance width="829"/>
  <unicode hex="00A6"/>
  <outline>
    <contour>
      <point x="250" y="-193" type="line"/>
      <point x="587" y="-193" type="line"/>
      <point x="587" y="533" type="line"/>
      <point x="250" y="533" type="line"/>
    </contour>
    <contour>
      <point x="250" y="882" type="line"/>
      <point x="587" y="882" type="line"/>
      <point x="587" y="1607" type="line"/>
      <point x="250" y="1607" type="line"/>
    </contour>
  </outline>
</glyph>
<glyph name="copyright" format="1">
  <advance width="1829"/>
  <unicode hex="00A9"/>
  <outline>
    <contour>
      <point x="913" y="1225" type="curve" smooth="yes"/>
      <point x="626" y="1225"/>
      <point x="447" y="1037"/>
      <point x="447" y="764" type="curve" smooth="yes"/>
      <point x="447" y="486"/>
      <point x="628" y="301"/>
      <point x="914" y="301" type="curve" smooth="yes"/>
      <point x="1048" y="301"/>
      <point x="1201" y="359"/>
      <point x="1270" y="436" type="curve"/>
      <point x="1192" y="555" type="line"/>
      <point x="1128" y="478"/>
      <point x="1020" y="434"/>
      <point x="919" y="434" type="curve" smooth="yes"/>
      <point x="738" y="434"/>
      <point x="627" y="554"/>
      <point x="627" y="764" type="curve" smooth="yes"/>
      <point x="627" y="975"/>
      <point x="737" y="1092"/>
      <point x="919" y="1092" type="curve" smooth="yes"/>
      <point x="1021" y="1092"/>
      <point x="1123" y="1052"/>
      <point x="1182" y="980" type="curve"/>
      <point x="1274" y="1088" type="line"/>
      <point x="1208" y="1167"/>
      <point x="1054" y="1225"/>
    </contour>
    <contour>
      <point x="915" y="137" type="curve" smooth="yes"/>
      <point x="533" y="137"/>
      <point x="297" y="367"/>
      <point x="297" y="752" type="curve" smooth="yes"/>
      <point x="297" y="1137"/>
      <point x="533" y="1367"/>
      <point x="915" y="1367" type="curve" smooth="yes"/>
      <point x="1297" y="1367"/>
      <point x="1533" y="1137"/>
      <point x="1533" y="752" type="curve" smooth="yes"/>
      <point x="1533" y="367"/>
      <point x="1297" y="137"/>
    </contour>
    <contour>
      <point x="915" y="-14" type="curve" smooth="yes"/>
      <point x="1407" y="-14"/>
      <point x="1722" y="289"/>
      <point x="1722" y="752" type="curve" smooth="yes"/>
      <point x="1722" y="1215"/>
      <point x="1407" y="1519"/>
      <point x="915" y="1519" type="curve" smooth="yes"/>
      <point x="423" y="1519"/>
      <point x="108" y="1215"/>
      <point x="108" y="752" type="curve" smooth="yes"/>
      <point x="108" y="289"/>
      <point x="423" y="-14"/>
    </contour>
  </outline>
</glyph>
<glyph name="logicalnot" format="1">
  <advance width="1073"/>
  <unicode hex="00AC"/>
  <outline>
    <contour>
      <point x="773" y="312" type="line"/>
      <point x="979" y="312" type="line"/>
      <point x="979" y="1001" type="line"/>
      <point x="82" y="1001" type="line"/>
      <point x="82" y="713" type="line"/>
      <point x="773" y="713" type="line"/>
    </contour>
  </outline>
</glyph>
<glyph name="macron" format="1">
  <advance width="557"/>
  <unicode hex="00AF"/>
  <outline>
    <contour>
      <point x="289" y="1098" type="move" name="_top"/>
    </contour>
    <contour>
      <point x="291" y="1350" type="move" name="_mid"/>
    </contour>
    <contour>
      <point x="-45" y="1266" type="line"/>
      <point x="609" y="1266" type="line"/>
      <point x="609" y="1437" type="line"/>
      <point x="-45" y="1437" type="line"/>
    </contour>
  </outline>
</glyph>
<glyph name="degree" format="1">
  <advance width="868"/>
  <unicode hex="00B0"/>
  <outline>
    <contour>
      <point x="415" y="831" type="curve" smooth="yes"/>
      <point x="316" y="831"/>
      <point x="232" y="905"/>
      <point x="232" y="1006" type="curve" smooth="yes"/>
      <point x="232" y="1108"/>
      <point x="318" y="1184"/>
      <point x="415" y="1184" type="curve" smooth="yes"/>
      <point x="510" y="1184"/>
      <point x="599" y="1110"/>
      <point x="599" y="1006" type="curve" smooth="yes"/>
      <point x="599" y="906"/>
      <point x="512" y="831"/>
    </contour>
    <contour>
      <point x="401" y="650" type="curve" smooth="yes"/>
      <point x="602" y="650"/>
      <point x="806" y="787"/>
      <point x="806" y="1002" type="curve" smooth="yes"/>
      <point x="806" y="1213"/>
      <point x="621" y="1365"/>
      <point x="416" y="1365" type="curve" smooth="yes"/>
      <point x="221" y="1365"/>
      <point x="25" y="1216"/>
      <point x="25" y="1013" type="curve" smooth="yes"/>
      <point x="25" y="815"/>
      <point x="202" y="650"/>
    </contour>
  </outline>
</glyph>
<glyph name="plusminus" format="1">
  <advance width="1174"/>
  <unicode hex="00B1"/>
  <outline>
    <contour>
      <point x="425" y="483" type="line"/>
      <point x="751" y="483" type="line"/>
      <point x="751" y="820" type="line"/>
      <point x="1076" y="820" type="line"/>
      <point x="1076" y="1098" type="line"/>
      <point x="751" y="1098" type="line"/>
      <point x="751" y="1431" type="line"/>
      <point x="425" y="1431" type="line"/>
      <point x="425" y="1098" type="line"/>
      <point x="100" y="1098" type="line"/>
      <point x="100" y="820" type="line"/>
      <point x="425" y="820" type="line"/>
    </contour>
    <contour>
      <point x="158" y="0" type="line"/>
      <point x="1018" y="0" type="line"/>
      <point x="1018" y="266" type="line"/>
      <point x="158" y="266" type="line"/>
    </contour>
  </outline>
</glyph>
<glyph name="uni00B2" format="1">
  <advance width="1254"/>
  <unicode hex="00B2"/>
  <outline>
    <contour>
      <point x="300" y="691" type="line"/>
      <point x="967" y="691" type="line"/>
      <point x="967" y="897" type="line"/>
      <point x="673" y="897" type="line"/>
      <point x="766" y="993" type="line" smooth="yes"/>
      <point x="908" y="1139"/>
      <point x="989" y="1205"/>
      <point x="989" y="1361" type="curve" smooth="yes"/>
      <point x="989" y="1575"/>
      <point x="825" y="1664"/>
      <point x="641" y="1664" type="curve" smooth="yes"/>
      <point x="506" y="1664"/>
      <point x="360" y="1617"/>
      <point x="260" y="1535" type="curve"/>
      <point x="353" y="1347" type="line"/>
      <point x="436" y="1397"/>
      <point x="529" y="1428"/>
      <point x="600" y="1428" type="curve" smooth="yes"/>
      <point x="668" y="1428"/>
      <point x="716" y="1399"/>
      <point x="716" y="1330" type="curve" smooth="yes"/>
      <point x="716" y="1263"/>
      <point x="665" y="1216"/>
      <point x="591" y="1146" type="curve" smooth="yes"/>
      <point x="300" y="868" type="line"/>
    </contour>
  </outline>
</glyph>
<glyph name="uni00B3" format="1">
  <advance width="1184"/>
  <unicode hex="00B3"/>
  <outline>
    <contour>
      <point x="591" y="598" type="curve" smooth="yes"/>
      <point x="793" y="598"/>
      <point x="963" y="687"/>
      <point x="963" y="920" type="curve" smooth="yes"/>
      <point x="963" y="969"/>
      <point x="940" y="1133"/>
      <point x="764" y="1162" type="curve"/>
      <point x="867" y="1187"/>
      <point x="926" y="1294"/>
      <point x="926" y="1393" type="curve" smooth="yes"/>
      <point x="926" y="1591"/>
      <point x="772" y="1673"/>
      <point x="586" y="1673" type="curve" smooth="yes"/>
      <point x="469" y="1672"/>
      <point x="337" y="1639"/>
      <point x="226" y="1582" type="curve"/>
      <point x="318" y="1385" type="line"/>
      <point x="399" y="1426"/>
      <point x="479" y="1445"/>
      <point x="535" y="1445" type="curve" smooth="yes"/>
      <point x="621" y="1445"/>
      <point x="649" y="1403"/>
      <point x="649" y="1349" type="curve" smooth="yes"/>
      <point x="649" y="1270"/>
      <point x="581" y="1237"/>
      <point x="440" y="1237" type="curve"/>
      <point x="440" y="1062" type="line"/>
      <point x="490" y="1064"/>
      <point x="665" y="1030"/>
      <point x="665" y="936" type="curve" smooth="yes"/>
      <point x="665" y="853"/>
      <point x="609" y="821"/>
      <point x="532" y="821" type="curve" smooth="yes"/>
      <point x="472" y="821"/>
      <point x="393" y="840"/>
      <point x="320" y="874" type="curve"/>
      <point x="255" y="668" type="line"/>
      <point x="361" y="625"/>
      <point x="481" y="598"/>
    </contour>
  </outline>
</glyph>
<glyph name="paragraph" format="1">
  <advance width="1391"/>
  <unicode hex="00B6"/>
  <outline>
    <contour>
      <point x="577" y="-142" type="line"/>
      <point x="848" y="-142" type="line"/>
      <point x="848" y="1264" type="line"/>
      <point x="1013" y="1264" type="line"/>
      <point x="1013" y="-142" type="line"/>
      <point x="1280" y="-142" type="line"/>
      <point x="1280" y="1490" type="line"/>
      <point x="619" y="1490" type="line" smooth="yes"/>
      <point x="349" y="1490"/>
      <point x="82" y="1429"/>
      <point x="82" y="1057" type="curve" smooth="yes"/>
      <point x="82" y="705"/>
      <point x="275" y="601"/>
      <point x="577" y="601" type="curve"/>
    </contour>
  </outline>
</glyph>
<glyph name="cedilla" format="1">
  <advance width="680"/>
  <unicode hex="00B8"/>
  <outline>
    <contour>
      <point x="201" y="0" type="move" name="_bot"/>
    </contour>
    <contour>
      <point x="228" y="-419" type="curve" smooth="yes"/>
      <point x="335" y="-419"/>
      <point x="429" y="-363"/>
      <point x="429" y="-225" type="curve"/>
      <point x="424" y="-86"/>
      <point x="281" y="-71"/>
      <point x="230" y="-71" type="curve"/>
      <point x="243" y="0" type="line"/>
      <point x="132" y="0" type="line"/>
      <point x="119" y="-131" type="line"/>
      <point x="256" y="-131"/>
      <point x="279" y="-168"/>
      <point x="279" y="-234" type="curve" smooth="yes"/>
      <point x="279" y="-287"/>
      <point x="235" y="-306"/>
      <point x="184" y="-306" type="curve" smooth="yes"/>
      <point x="139" y="-306"/>
      <point x="86" y="-290"/>
      <point x="56" y="-269" type="curve"/>
      <point x="27" y="-359" type="line"/>
      <point x="86" y="-396"/>
      <point x="159" y="-419"/>
    </contour>
  </outline>
</glyph>
<glyph name="guillemotright" format="1">
  <advance width="1701"/>
  <unicode hex="00BB"/>
  <outline>
    <contour>
      <point x="228" y="9" type="line"/>
      <point x="861" y="448" type="line"/>
      <point x="861" y="690" type="line"/>
      <point x="227" y="1127" type="line"/>
      <point x="227" y="809" type="line"/>
      <point x="523" y="568" type="line"/>
      <point x="228" y="329" type="line"/>
    </contour>
    <contour>
      <point x="936" y="9" type="line"/>
      <point x="1570" y="448" type="line"/>
      <point x="1570" y="690" type="line"/>
      <point x="936" y="1127" type="line"/>
      <point x="936" y="809" type="line"/>
      <point x="1231" y="568" type="line"/>
      <point x="936" y="329" type="line"/>
    </contour>
  </outline>
</glyph>
<glyph name="threequarters" format="1">
  <advance width="2231"/>
  <unicode hex="00BE"/>
  <outline>
    <contour>
      <point x="449" y="456" type="curve" smooth="yes"/>
      <point x="651" y="456"/>
      <point x="821" y="546"/>
      <point x="821" y="779" type="curve" smooth="yes"/>
      <point x="821" y="828"/>
      <point x="798" y="992"/>
      <point x="622" y="1021" type="curve"/>
      <point x="725" y="1046"/>
      <point x="784" y="1152"/>
      <point x="784" y="1251" type="curve" smooth="yes"/>
      <point x="784" y="1449"/>
      <point x="630" y="1531"/>
      <point x="444" y="1531" type="curve" smooth="yes"/>
      <point x="327" y="1530"/>
      <point x="195" y="1497"/>
      <point x="84" y="1440" type="curve"/>
      <point x="185" y="1234" type="line"/>
      <point x="260" y="1275"/>
      <point x="331" y="1294"/>
      <point x="387" y="1294" type="curve" smooth="yes"/>
      <point x="473" y="1294"/>
      <point x="501" y="1252"/>
      <point x="501" y="1208" type="curve" smooth="yes"/>
      <point x="501" y="1138"/>
      <point x="433" y="1105"/>
      <point x="299" y="1105" type="curve"/>
      <point x="299" y="911" type="line"/>
      <point x="348" y="913"/>
      <point x="517" y="879"/>
      <point x="517" y="795" type="curve" smooth="yes"/>
      <point x="517" y="721"/>
      <point x="461" y="689"/>
      <point x="384" y="689" type="curve" smooth="yes"/>
      <point x="324" y="689"/>
      <point x="254" y="708"/>
      <point x="188" y="742" type="curve"/>
      <point x="113" y="526" type="line"/>
      <point x="219" y="483"/>
      <point x="339" y="456"/>
    </contour>
    <contour>
      <point x="2038" y="-17" type="line"/>
      <point x="2038" y="186" type="line"/>
      <point x="2165" y="186" type="line"/>
      <point x="2165" y="396" type="line"/>
      <point x="2038" y="396" type="line"/>
      <point x="2038" y="1009" type="line"/>
      <point x="1814" y="1068" type="line"/>
      <point x="1340" y="357" type="line"/>
      <point x="1375" y="186" type="line"/>
      <point x="1792" y="186" type="line"/>
      <point x="1792" y="0" type="line"/>
    </contour>
    <contour>
      <point x="822" y="-86" type="line"/>
      <point x="1766" y="1493" type="line"/>
      <point x="1567" y="1604" type="line"/>
      <point x="619" y="20" type="line"/>
    </contour>
    <contour>
      <point x="1589" y="394" type="line"/>
      <point x="1792" y="712" type="line"/>
      <point x="1792" y="394" type="line"/>
    </contour>
  </outline>
</glyph>
<glyph name="AE" format="1">
  <advance width="2082"/>
  <unicode hex="00C6"/>
  <outline>
    <contour>
      <point x="1360" y="1491" type="move" name="top"/>
    </contour>
    <contour>
      <point x="17" y="0" type="line"/>
      <point x="478" y="0" type="line"/>
      <point x="605" y="304" type="line"/>
      <point x="977" y="304" type="line"/>
      <point x="977" y="0" type="line"/>
      <point x="1969" y="0" type="line"/>
      <point x="1969" y="300" type="line"/>
      <point x="1390" y="300" type="line"/>
      <point x="1390" y="638" type="line"/>
      <point x="1864" y="638" type="line"/>
      <point x="1864" y="892" type="line"/>
      <point x="1391" y="892" type="line"/>
      <point x="1391" y="1193" type="line"/>
      <point x="1977" y="1193" type="line"/>
      <point x="1977" y="1491" type="line"/>
      <point x="693" y="1491" type="line"/>
    </contour>
    <contour>
      <point x="696" y="558" type="line"/>
      <point x="978" y="1227" type="line"/>
      <point x="978" y="558" type="line"/>
    </contour>
  </outline>
</glyph>
<glyph name="multiply" format="1">
  <advance width="1397"/>
  <unicode hex="00D7"/>
  <outline>
    <contour>
      <point x="465" y="76" type="line"/>
      <point x="730" y="318" type="line"/>
      <point x="993" y="76" type="line"/>
      <point x="1194" y="299" type="line"/>
      <point x="949" y="525" type="line"/>
      <point x="1194" y="750" type="line"/>
      <point x="993" y="973" type="line"/>
      <point x="730" y="730" type="line"/>
      <point x="465" y="973" type="line"/>
      <point x="264" y="750" type="line"/>
      <point x="509" y="525" type="line"/>
      <point x="264" y="299" type="line"/>
    </contour>
  </outline>
</glyph>
<glyph name="Thorn" format="1">
  <advance width="1428"/>
  <unicode hex="00DE"/>
  <outline>
    <contour>
      <point x="166" y="0" type="line"/>
      <point x="578" y="0" type="line"/>
      <point x="578" y="319" type="line"/>
      <point x="613" y="319" type="line" smooth="yes"/>
      <point x="1177" y="319"/>
      <point x="1360" y="442"/>
      <point x="1360" y="827" type="curve" smooth="yes"/>
      <point x="1360" y="1115"/>
      <point x="1185" y="1208"/>
      <point x="644" y="1208" type="curve" smooth="yes"/>
      <point x="578" y="1208" type="line"/>
      <point x="578" y="1491" type="line"/>
      <point x="166" y="1491" type="line"/>
    </contour>
    <contour>
      <point x="578" y="580" type="line"/>
      <point x="578" y="966" type="line"/>
      <point x="627" y="966" type="line" smooth="yes"/>
      <point x="867" y="966"/>
      <point x="944" y="923"/>
      <point x="944" y="790" type="curve" smooth="yes"/>
      <point x="944" y="631"/>
      <point x="863" y="580"/>
      <point x="613" y="580" type="curve" smooth="yes"/>
    </contour>
  </outline>
</glyph>
<glyph name="eth" format="1">
  <advance width="1240"/>
  <unicode hex="00F0"/>
  <outline>
    <contour>
      <point x="635" y="-17" type="curve" smooth="yes"/>
      <point x="949" y="-17"/>
      <point x="1177" y="157"/>
      <point x="1177" y="577" type="curve" smooth="yes"/>
      <point x="1177" y="981"/>
      <point x="1007" y="1263"/>
      <point x="836" y="1426" type="curve"/>
      <point x="1006" y="1576" type="line"/>
      <point x="898" y="1703" type="line"/>
      <point x="709" y="1531" type="line"/>
      <point x="666" y="1572"/>
      <point x="568" y="1645"/>
      <point x="504" y="1687" type="curve"/>
      <point x="349" y="1502" type="line"/>
      <point x="384" y="1484"/>
      <point x="487" y="1398"/>
      <point x="531" y="1360" type="curve"/>
      <point x="410" y="1248" type="line"/>
      <point x="507" y="1148" type="line"/>
      <point x="638" y="1261" type="line"/>
      <point x="708" y="1201"/>
      <point x="779" y="1097"/>
      <point x="779" y="976" type="curve"/>
      <point x="719" y="1023"/>
      <point x="642" y="1062"/>
      <point x="507" y="1062" type="curve" smooth="yes"/>
      <point x="313" y="1062"/>
      <point x="90" y="918"/>
      <point x="90" y="570" type="curve" smooth="yes"/>
      <point x="90" y="90"/>
      <point x="370" y="-17"/>
    </contour>
    <contour>
      <point x="627" y="215" type="curve" smooth="yes"/>
      <point x="524" y="215"/>
      <point x="477" y="308"/>
      <point x="477" y="509" type="curve" smooth="yes"/>
      <point x="477" y="726"/>
      <point x="524" y="827"/>
      <point x="627" y="827" type="curve" smooth="yes"/>
      <point x="735" y="827"/>
      <point x="784" y="726"/>
      <point x="784" y="509" type="curve" smooth="yes"/>
      <point x="784" y="308"/>
      <point x="735" y="215"/>
    </contour>
  </outline>
</glyph>
<glyph name="oslash" format="1">
  <advance width="1271"/>
  <unicode hex="00F8"/>
  <outline>
    <contour>
      <point x="461" y="-160" type="line"/>
      <point x="507" y="-19" type="line"/>
      <point x="544" y="-24"/>
      <point x="585" y="-26"/>
      <point x="629" y="-26" type="curve" smooth="yes"/>
      <point x="979" y="-26"/>
      <point x="1180" y="170"/>
      <point x="1180" y="550" type="curve" smooth="yes"/>
      <point x="1180" y="843"/>
      <point x="1061" y="1020"/>
      <point x="870" y="1091" type="curve"/>
      <point x="922" y="1252" type="line"/>
      <point x="816" y="1289" type="line"/>
      <point x="762" y="1122" type="line"/>
      <point x="721" y="1129"/>
      <point x="676" y="1132"/>
      <point x="628" y="1132" type="curve" smooth="yes"/>
      <point x="284" y="1132"/>
      <point x="77" y="937"/>
      <point x="77" y="550" type="curve" smooth="yes"/>
      <point x="77" y="255"/>
      <point x="199" y="77"/>
      <point x="398" y="9" type="curve"/>
      <point x="354" y="-124" type="line"/>
    </contour>
    <contour>
      <point x="496" y="309" type="line"/>
      <point x="470" y="377"/>
      <point x="469" y="475"/>
      <point x="469" y="553" type="curve" smooth="yes"/>
      <point x="469" y="807"/>
      <point x="532" y="874"/>
      <point x="629" y="874" type="curve" smooth="yes"/>
      <point x="648" y="874"/>
      <point x="665" y="872"/>
      <point x="678" y="868" type="curve"/>
    </contour>
    <contour>
      <point x="629" y="230" type="curve" smooth="yes"/>
      <point x="614" y="230"/>
      <point x="601" y="232"/>
      <point x="591" y="235" type="curve"/>
      <point x="770" y="787" type="line"/>
      <point x="776" y="740"/>
      <point x="791" y="677"/>
      <point x="791" y="553" type="curve" smooth="yes"/>
      <point x="791" y="299"/>
      <point x="726" y="230"/>
    </contour>
  </outline>
</glyph>
<glyph name="Hbar" format="1">
  <advance width="1584"/>
  <unicode hex="0126"/>
  <outline>
    <contour>
      <point x="34" y="1123" type="line"/>
      <point x="1549" y="1123" type="line"/>
      <point x="1549" y="1302" type="line"/>
      <point x="34" y="1302" type="line"/>
    </contour>
    <component base="H"/>
  </outline>
</glyph>
<glyph name="hbar" format="1">
  <advance width="1310"/>
  <unicode hex="0127"/>
  <outline>
    <contour>
      <point x="134" y="0" type="line"/>
      <point x="524" y="0" type="line"/>
      <point x="524" y="833" type="line"/>
      <point x="493" y="800"/>
      <point x="530" y="878"/>
      <point x="667" y="878" type="curve" smooth="yes"/>
      <point x="712" y="878"/>
      <point x="798" y="837"/>
      <point x="798" y="713" type="curve" smooth="yes"/>
      <point x="798" y="0" type="line"/>
      <point x="1187" y="0" type="line"/>
      <point x="1187" y="681" type="line" smooth="yes"/>
      <point x="1187" y="1032"/>
      <point x="957" y="1132"/>
      <point x="805" y="1132" type="curve" smooth="yes"/>
      <point x="690" y="1132"/>
      <point x="566" y="1089"/>
      <point x="524" y="1016" type="curve"/>
      <point x="524" y="1205" type="line"/>
      <point x="790" y="1205" type="line"/>
      <point x="790" y="1375" type="line"/>
      <point x="524" y="1375" type="line"/>
      <point x="524" y="1556" type="line"/>
      <point x="134" y="1491" type="line"/>
      <point x="134" y="1375" type="line"/>
      <point x="-1" y="1375" type="line"/>
      <point x="-1" y="1205" type="line"/>
      <point x="134" y="1205" type="line"/>
    </contour>
  </outline>
</glyph>
<glyph name="lslash" format="1">
  <advance width="675"/>
  <unicode hex="0142"/>
  <outline>
    <contour>
      <point x="-14" y="437" type="line"/>
      <point x="711" y="871" type="line"/>
      <point x="711" y="1098" type="line"/>
      <point x="-14" y="654" type="line"/>
    </contour>
    <component base="l"/>
  </outline>
</glyph>
<glyph name="Eng" format="1">
  <advance width="1615"/>
  <unicode hex="014A"/>
  <outline>
    <contour>
      <point x="1453" y="1485" type="line"/>
      <point x="1088" y="1485" type="line"/>
      <point x="1088" y="646" type="line"/>
      <point x="587" y="1485" type="line"/>
      <point x="166" y="1485" type="line"/>
      <point x="166" y="0" type="line"/>
      <point x="534" y="0" type="line"/>
      <point x="534" y="894" type="line"/>
      <point x="1062" y="37" type="line" smooth="yes"/>
      <point x="1062" y="-181"/>
      <point x="1062" y="-215"/>
      <point x="857" y="-301" type="curve"/>
      <point x="986" y="-567" type="line"/>
      <point x="1284" y="-495"/>
      <point x="1452" y="-393"/>
      <point x="1452" y="-95" type="curve" smooth="yes"/>
    </contour>
  </outline>
</glyph>
<glyph name="OE" format="1">
  <advance width="2188"/>
  <unicode hex="0152"/>
  <outline>
    <contour>
      <point x="726" y="-23" type="curve" smooth="yes"/>
      <point x="845" y="-23"/>
      <point x="991" y="41"/>
      <point x="1057" y="96" type="curve"/>
      <point x="1057" y="0" type="line"/>
      <point x="2074" y="0" type="line"/>
      <point x="2074" y="299" type="line"/>
      <point x="1469" y="299" type="line"/>
      <point x="1469" y="638" type="line"/>
      <point x="2010" y="638" type="line"/>
      <point x="2010" y="892" type="line"/>
      <point x="1469" y="892" type="line"/>
      <point x="1469" y="1192" type="line"/>
      <point x="2066" y="1192" type="line"/>
      <point x="2066" y="1491" type="line"/>
      <point x="1057" y="1491" type="line"/>
      <point x="1057" y="1458" type="line"/>
      <point x="1000" y="1478"/>
      <point x="880" y="1511"/>
      <point x="782" y="1511" type="curve" smooth="yes"/>
      <point x="334" y="1511"/>
      <point x="85" y="1262"/>
      <point x="85" y="747" type="curve" smooth="yes"/>
      <point x="85" y="273"/>
      <point x="331" y="-23"/>
    </contour>
    <contour>
      <point x="773" y="271" type="curve" smooth="yes"/>
      <point x="561" y="271"/>
      <point x="496" y="466"/>
      <point x="496" y="747" type="curve" smooth="yes"/>
      <point x="496" y="1030"/>
      <point x="565" y="1222"/>
      <point x="776" y="1222" type="curve" smooth="yes"/>
      <point x="988" y="1222"/>
      <point x="1057" y="1031"/>
      <point x="1057" y="747" type="curve" smooth="yes"/>
      <point x="1057" y="467"/>
      <point x="992" y="271"/>
    </contour>
  </outline>
</glyph>
<glyph name="oe" format="1">
  <advance width="1872"/>
  <unicode hex="0153"/>
  <outline>
    <contour>
      <point x="605" y="-26" type="curve" smooth="yes"/>
      <point x="748" y="-26"/>
      <point x="864" y="11"/>
      <point x="950" y="90" type="curve"/>
      <point x="1060" y="11"/>
      <point x="1207" y="-26"/>
      <point x="1370" y="-26" type="curve" smooth="yes"/>
      <point x="1501" y="-26"/>
      <point x="1616" y="-2"/>
      <point x="1741" y="56" type="curve"/>
      <point x="1677" y="309" type="line"/>
      <point x="1600" y="260"/>
      <point x="1509" y="235"/>
      <point x="1401" y="235" type="curve" smooth="yes"/>
      <point x="1280" y="235"/>
      <point x="1177" y="307"/>
      <point x="1170" y="452" type="curve"/>
      <point x="1797" y="452" type="line"/>
      <point x="1795" y="463"/>
      <point x="1794" y="614"/>
      <point x="1794" y="626" type="curve" smooth="yes"/>
      <point x="1794" y="934"/>
      <point x="1627" y="1132"/>
      <point x="1328" y="1132" type="curve" smooth="yes"/>
      <point x="1175" y="1132"/>
      <point x="1048" y="1089"/>
      <point x="953" y="1010" type="curve"/>
      <point x="866" y="1093"/>
      <point x="747" y="1132"/>
      <point x="604" y="1132" type="curve" smooth="yes"/>
      <point x="259" y="1132"/>
      <point x="52" y="937"/>
      <point x="52" y="550" type="curve" smooth="yes"/>
      <point x="52" y="170"/>
      <point x="255" y="-26"/>
    </contour>
    <contour>
      <point x="605" y="230" type="curve" smooth="yes"/>
      <point x="448" y="230"/>
      <point x="444" y="425"/>
      <point x="444" y="553" type="curve" smooth="yes"/>
      <point x="444" y="807"/>
      <point x="508" y="874"/>
      <point x="605" y="874" type="curve" smooth="yes"/>
      <point x="702" y="874"/>
      <point x="766" y="807"/>
      <point x="766" y="553" type="curve" smooth="yes"/>
      <point x="766" y="299"/>
      <point x="702" y="230"/>
    </contour>
    <contour>
      <point x="1154" y="637" type="curve"/>
      <point x="1152" y="681"/>
      <point x="1203" y="871"/>
      <point x="1319" y="871" type="curve" smooth="yes"/>
      <point x="1426" y="871"/>
      <point x="1496" y="811"/>
      <point x="1496" y="640" type="curve" smooth="yes"/>
      <point x="1496" y="635"/>
      <point x="1490" y="637"/>
    </contour>
  </outline>
</glyph>
<glyph name="florin" format="1">
  <advance width="1348"/>
  <unicode hex="0192"/>
  <outline>
    <contour>
      <point x="455" y="0" type="line"/>
      <point x="843" y="0" type="line"/>
      <point x="945" y="937" type="line"/>
      <point x="1186" y="937" type="line"/>
      <point x="1204" y="1109" type="line"/>
      <point x="965" y="1109" type="line"/>
      <point x="983" y="1283"/>
      <point x="1062" y="1284"/>
      <point x="1102" y="1284" type="curve" smooth="yes"/>
      <point x="1153" y="1284"/>
      <point x="1197" y="1288"/>
      <point x="1240" y="1279" type="curve"/>
      <point x="1247" y="1568" type="line"/>
      <point x="1170" y="1574"/>
      <point x="1107" y="1572"/>
      <point x="1037" y="1572" type="curve" smooth="yes"/>
      <point x="785" y="1572"/>
      <point x="609" y="1437"/>
      <point x="574" y="1109" type="curve"/>
      <point x="396" y="1109" type="line"/>
      <point x="378" y="937" type="line"/>
      <point x="556" y="937" type="line"/>
    </contour>
  </outline>
</glyph>
<glyph name="breve" format="1">
  <advance width="673"/>
  <unicode hex="02D8"/>
  <outline>
    <contour>
      <point x="335" y="1098" type="move" name="_top"/>
    </contour>
    <contour>
      <point x="333" y="1226" type="curve" smooth="yes"/>
      <point x="547" y="1226"/>
      <point x="650" y="1327"/>
      <point x="662" y="1548" type="curve"/>
      <point x="466" y="1548" type="line"/>
      <point x="464" y="1471"/>
      <point x="423" y="1436"/>
      <point x="334" y="1436" type="curve" smooth="yes"/>
      <point x="250" y="1436"/>
      <point x="210" y="1471"/>
      <point x="207" y="1548" type="curve"/>
      <point x="11" y="1548" type="line"/>
      <point x="23" y="1327"/>
      <point x="125" y="1226"/>
    </contour>
  </outline>
</glyph>
<glyph name="hungarumlaut" format="1">
  <advance width="1129"/>
  <unicode hex="02DD"/>
  <outline>
    <contour>
      <point x="590" y="1098" type="move" name="_top"/>
    </contour>
    <contour>
      <point x="318" y="1161" type="line"/>
      <point x="751" y="1643" type="line"/>
      <point x="519" y="1846" type="line"/>
      <point x="147" y="1298" type="line"/>
    </contour>
    <contour>
      <point x="799" y="1177" type="line"/>
      <point x="1280" y="1611" type="line"/>
      <point x="1072" y="1836" type="line"/>
      <point x="644" y="1332" type="line"/>
    </contour>
  </outline>
</glyph>
<glyph name="uni0307" format="1">
  <advance width="582"/>
  <unicode hex="0307"/>
  <outline>
    <contour>
      <point x="273" y="1098" type="move" name="_top"/>
    </contour>
    <contour>
      <point x="274" y="1206" type="curve" smooth="yes"/>
      <point x="407" y="1206"/>
      <point x="491" y="1288"/>
      <point x="491" y="1418" type="curve" smooth="yes"/>
      <point x="491" y="1548"/>
      <point x="407" y="1630"/>
      <point x="274" y="1630" type="curve" smooth="yes"/>
      <point x="144" y="1630"/>
      <point x="61" y="1548"/>
      <point x="61" y="1418" type="curve" smooth="yes"/>
      <point x="61" y="1288"/>
      <point x="144" y="1206"/>
    </contour>
  </outline>
</glyph>
<glyph name="uni030F" format="1">
  <advance width="1280"/>
  <unicode hex="030F"/>
  <outline>
    <contour>
      <point x="791" y="1098" type="move" name="_top"/>
    </contour>
    <contour>
      <point x="581" y="1177" type="line"/>
      <point x="737" y="1332" type="line"/>
      <point x="309" y="1836" type="line"/>
      <point x="100" y="1611" type="line"/>
    </contour>
    <contour>
      <point x="1063" y="1161" type="line"/>
      <point x="1233" y="1298" type="line"/>
      <point x="862" y="1846" type="line"/>
      <point x="629" y="1643" type="line"/>
    </contour>
  </outline>
</glyph>
<glyph name="uni0311" format="1">
  <advance width="641"/>
  <unicode hex="0311"/>
  <outline>
    <contour>
      <point x="335" y="1098" type="move" name="_top"/>
    </contour>
    <contour>
      <point x="11" y="1226" type="curve"/>
      <point x="207" y="1226" type="line"/>
      <point x="210" y="1303"/>
      <point x="250" y="1337"/>
      <point x="334" y="1337" type="curve" smooth="yes"/>
      <point x="423" y="1337"/>
      <point x="464" y="1303"/>
      <point x="466" y="1226" type="curve"/>
      <point x="662" y="1226" type="line"/>
      <point x="650" y="1447"/>
      <point x="547" y="1548"/>
      <point x="333" y="1548" type="curve" smooth="yes"/>
      <point x="125" y="1548"/>
      <point x="23" y="1447"/>
    </contour>
  </outline>
</glyph>
<glyph name="Sigma" format="1">
  <advance width="1448"/>
  <unicode hex="03A3"/>
  <outline>
    <contour>
      <point x="147" y="0" type="line"/>
      <point x="1356" y="0" type="line"/>
      <point x="1356" y="294" type="line"/>
      <point x="636" y="294" type="line"/>
      <point x="1167" y="623" type="line"/>
      <point x="1167" y="907" type="line"/>
      <point x="663" y="1214" type="line"/>
      <point x="1299" y="1214" type="line"/>
      <point x="1299" y="1485" type="line"/>
      <point x="156" y="1485" type="line"/>
      <point x="156" y="1130" type="line"/>
      <point x="756" y="723" type="line"/>
      <point x="147" y="282" type="line"/>
    </contour>
  </outline>
</glyph>
<glyph name="uni03BC" format="1">
  <advance width="1322"/>
  <unicode hex="03BC"/>
  <outline>
    <contour>
      <point x="532" y="-335" type="line"/>
      <point x="532" y="24" type="line"/>
      <point x="558" y="5"/>
      <point x="592" y="-5"/>
      <point x="628" y="-5" type="curve" smooth="yes"/>
      <point x="716" y="-5"/>
      <point x="816" y="50"/>
      <point x="838" y="158" type="curve"/>
      <point x="932" y="0" type="line"/>
      <point x="1203" y="0" type="line"/>
      <point x="1203" y="1096" type="line"/>
      <point x="817" y="1096" type="line"/>
      <point x="817" y="288" type="line"/>
      <point x="791" y="260"/>
      <point x="738" y="241"/>
      <point x="683" y="241" type="curve" smooth="yes"/>
      <point x="607" y="241"/>
      <point x="532" y="277"/>
      <point x="532" y="373" type="curve" smooth="yes"/>
      <point x="532" y="1096" type="line"/>
      <point x="137" y="1096" type="line"/>
      <point x="137" y="-303" type="line"/>
    </contour>
  </outline>
</glyph>
<glyph name="endash" format="1">
  <advance width="1080"/>
  <unicode hex="2013"/>
  <outline>
    <contour>
      <point x="160" y="549" type="line"/>
      <point x="902" y="549" type="line"/>
      <point x="902" y="840" type="line"/>
      <point x="160" y="840" type="line"/>
    </contour>
  </outline>
</glyph>
<glyph name="emdash" format="1">
  <advance width="2250"/>
  <unicode hex="2014"/>
  <outline>
    <contour>
      <point x="160" y="549" type="line"/>
      <point x="2073" y="549" type="line"/>
      <point x="2073" y="840" type="line"/>
      <point x="160" y="840" type="line"/>
    </contour>
  </outline>
</glyph>
<glyph name="quoteleft" format="1">
  <advance width="687"/>
  <unicode hex="2018"/>
  <outline>
    <contour>
      <point x="112" y="744" type="line"/>
      <point x="557" y="744" type="line"/>
      <point x="557" y="1181" type="line"/>
      <point x="371" y="1181" type="line"/>
      <point x="371" y="1278"/>
      <point x="421" y="1325"/>
      <point x="556" y="1376" type="curve"/>
      <point x="493" y="1491" type="line"/>
      <point x="327" y="1441"/>
      <point x="112" y="1384"/>
      <point x="112" y="1127" type="curve" smooth="yes"/>
    </contour>
  </outline>
</glyph>
<glyph name="quoteright" format="1">
  <advance width="515"/>
  <unicode hex="2019"/>
  <outline>
    <contour>
      <point x="96" y="738" type="line"/>
      <point x="271" y="790"/>
      <point x="478" y="849"/>
      <point x="478" y="1102" type="curve" smooth="yes"/>
      <point x="478" y="1485" type="line"/>
      <point x="33" y="1485" type="line"/>
      <point x="33" y="1048" type="line"/>
      <point x="218" y="1048" type="line"/>
      <point x="218" y="950"/>
      <point x="169" y="903"/>
      <point x="34" y="853" type="curve"/>
    </contour>
  </outline>
</glyph>
<glyph name="quotesinglbase" format="1">
  <advance width="689"/>
  <unicode hex="201A"/>
  <outline>
    <contour>
      <point x="203" y="-310" type="line"/>
      <point x="369" y="-260"/>
      <point x="584" y="-205"/>
      <point x="584" y="53" type="curve" smooth="yes"/>
      <point x="584" y="53"/>
      <point x="584" y="437"/>
      <point x="584" y="437" type="curve"/>
      <point x="139" y="437" type="line"/>
      <point x="139" y="0" type="line"/>
      <point x="325" y="0" type="line"/>
      <point x="324" y="-99"/>
      <point x="276" y="-146"/>
      <point x="140" y="-195" type="curve"/>
    </contour>
  </outline>
</glyph>
<glyph name="daggerdbl" format="1">
  <advance width="1208"/>
  <unicode hex="2021"/>
  <outline>
    <contour>
      <point x="400" y="-177" type="line"/>
      <point x="814" y="-177" type="line"/>
      <point x="814" y="199" type="line"/>
      <point x="1127" y="199" type="line"/>
      <point x="1127" y="460" type="line"/>
      <point x="814" y="460" type="line"/>
      <point x="814" y="821" type="line"/>
      <point x="1126" y="821" type="line"/>
      <point x="1126" y="1082" type="line"/>
      <point x="813" y="1082" type="line"/>
      <point x="813" y="1491" type="line"/>
      <point x="400" y="1491" type="line"/>
      <point x="400" y="1082" type="line"/>
      <point x="81" y="1082" type="line"/>
      <point x="81" y="821" type="line"/>
      <point x="400" y="821" type="line"/>
      <point x="400" y="460" type="line"/>
      <point x="81" y="460" type="line"/>
      <point x="81" y="199" type="line"/>
      <point x="400" y="199" type="line"/>
    </contour>
  </outline>
</glyph>
<glyph name="guilsinglleft" format="1">
  <advance width="1074"/>
  <unicode hex="2039"/>
  <outline>
    <contour>
      <point x="925" y="9" type="line"/>
      <point x="925" y="329" type="line"/>
      <point x="536" y="568" type="line"/>
      <point x="926" y="809" type="line"/>
      <point x="926" y="1127" type="line"/>
      <point x="198" y="690" type="line"/>
      <point x="198" y="448" type="line"/>
    </contour>
  </outline>
</glyph>
<glyph name="afii61289" format="1">
  <advance width="1052"/>
  <unicode hex="2113"/>
  <outline>
    <contour>
      <point x="666" y="-14" type="curve" smooth="yes"/>
      <point x="804" y="-14"/>
      <point x="921" y="18"/>
      <point x="990" y="62" type="curve"/>
      <point x="931" y="305" type="line"/>
      <point x="878" y="285"/>
      <point x="825" y="270"/>
      <point x="773" y="270" type="curve" smooth="yes"/>
      <point x="721" y="270"/>
      <point x="647" y="286"/>
      <point x="647" y="403" type="curve" smooth="yes"/>
      <point x="647" y="874" type="line"/>
      <point x="850" y="1060" type="line" smooth="yes"/>
      <point x="962" y="1163"/>
      <point x="1010" y="1272"/>
      <point x="1010" y="1369" type="curve" smooth="yes"/>
      <point x="1010" y="1545"/>
      <point x="857" y="1683"/>
      <point x="643" y="1683" type="curve" smooth="yes"/>
      <point x="390" y="1683"/>
      <point x="266" y="1517"/>
      <point x="266" y="1291" type="curve" smooth="yes"/>
      <point x="266" y="812" type="line"/>
      <point x="115" y="679" type="line"/>
      <point x="115" y="484" type="line"/>
      <point x="266" y="618" type="line"/>
      <point x="266" y="435" type="line" smooth="yes"/>
      <point x="266" y="51"/>
      <point x="486" y="-14"/>
    </contour>
    <contour>
      <point x="647" y="1089" type="line"/>
      <point x="647" y="1282" type="line" smooth="yes"/>
      <point x="647" y="1370"/>
      <point x="693" y="1404"/>
      <point x="738" y="1404" type="curve" smooth="yes"/>
      <point x="792" y="1404"/>
      <point x="816" y="1367"/>
      <point x="816" y="1322" type="curve" smooth="yes"/>
      <point x="816" y="1282"/>
      <point x="798" y="1235"/>
      <point x="763" y="1201" type="curve" smooth="yes"/>
    </contour>
  </outline>
</glyph>
<glyph name="product" format="1">
  <advance width="1719"/>
  <unicode hex="220F"/>
  <outline>
    <contour>
      <point x="263" y="-101" type="line"/>
      <point x="678" y="-101" type="line"/>
      <point x="678" y="1186" type="line"/>
      <point x="1042" y="1186" type="line"/>
      <point x="1042" y="-101" type="line"/>
      <point x="1457" y="-101" type="line"/>
      <point x="1457" y="1186" type="line"/>
      <point x="1676" y="1186" type="line"/>
      <point x="1676" y="1485" type="line"/>
      <point x="43" y="1485" type="line"/>
      <point x="43" y="1186" type="line"/>
      <point x="263" y="1186" type="line"/>
    </contour>
  </outline>
</glyph>
<glyph name="minus" format="1">
  <advance width="738"/>
  <unicode hex="2212"/>
  <outline>
    <contour>
      <point x="47" y="445" type="line"/>
      <point x="692" y="445" type="line"/>
      <point x="692" y="717" type="line"/>
      <point x="47" y="717" type="line"/>
    </contour>
  </outline>
</glyph>
<glyph name="infinity" format="1">
  <advance width="1685"/>
  <unicode hex="221E"/>
  <outline>
    <contour>
      <point x="470" y="183" type="curve" smooth="yes"/>
      <point x="627" y="183"/>
      <point x="747" y="276"/>
      <point x="846" y="386" type="curve"/>
      <point x="943" y="276"/>
      <point x="1059" y="183"/>
      <point x="1216" y="183" type="curve" smooth="yes"/>
      <point x="1418" y="183"/>
      <point x="1571" y="263"/>
      <point x="1572" y="595" type="curve"/>
      <point x="1571" y="925"/>
      <point x="1418" y="1005"/>
      <point x="1216" y="1005" type="curve" smooth="yes"/>
      <point x="1059" y="1005"/>
      <point x="943" y="913"/>
      <point x="846" y="803" type="curve"/>
      <point x="747" y="913"/>
      <point x="627" y="1005"/>
      <point x="470" y="1005" type="curve" smooth="yes"/>
      <point x="268" y="1005"/>
      <point x="114" y="912"/>
      <point x="113" y="595" type="curve"/>
      <point x="114" y="277"/>
      <point x="268" y="183"/>
    </contour>
    <contour>
      <point x="461" y="453" type="curve" smooth="yes"/>
      <point x="353" y="453"/>
      <point x="344" y="541"/>
      <point x="344" y="593" type="curve" smooth="yes"/>
      <point x="344" y="666"/>
      <point x="377" y="736"/>
      <point x="461" y="736" type="curve" smooth="yes"/>
      <point x="532" y="736"/>
      <point x="614" y="675"/>
      <point x="679" y="594" type="curve"/>
      <point x="614" y="513"/>
      <point x="532" y="453"/>
    </contour>
    <contour>
      <point x="1225" y="453" type="curve" smooth="yes"/>
      <point x="1161" y="453"/>
      <point x="1081" y="513"/>
      <point x="1016" y="594" type="curve"/>
      <point x="1081" y="675"/>
      <point x="1161" y="736"/>
      <point x="1225" y="736" type="curve" smooth="yes"/>
      <point x="1308" y="736"/>
      <point x="1340" y="679"/>
      <point x="1342" y="594" type="curve"/>
      <point x="1340" y="509"/>
      <point x="1308" y="453"/>
    </contour>
  </outline>
</glyph>
<glyph name="notequal" format="1">
  <advance width="1376"/>
  <unicode hex="2260"/>
  <outline>
    <contour>
      <point x="537" y="-167" type="line"/>
      <point x="673" y="250" type="line"/>
      <point x="1233" y="250" type="line"/>
      <point x="1233" y="507" type="line"/>
      <point x="758" y="507" type="line"/>
      <point x="808" y="659" type="line"/>
      <point x="1233" y="659" type="line"/>
      <point x="1233" y="916" type="line"/>
      <point x="893" y="916" type="line"/>
      <point x="1015" y="1283" type="line"/>
      <point x="838" y="1339" type="line"/>
      <point x="701" y="916" type="line"/>
      <point x="143" y="916" type="line"/>
      <point x="143" y="659" type="line"/>
      <point x="617" y="659" type="line"/>
      <point x="568" y="507" type="line"/>
      <point x="143" y="507" type="line"/>
      <point x="143" y="250" type="line"/>
      <point x="484" y="250" type="line"/>
      <point x="367" y="-113" type="line"/>
    </contour>
  </outline>
</glyph>
<glyph name="lessequal" format="1">
  <advance width="1456"/>
  <unicode hex="2264"/>
  <outline>
    <contour>
      <point x="1154" y="352" type="line"/>
      <point x="1281" y="605" type="line"/>
      <point x="683" y="901" type="line"/>
      <point x="1281" y="1196" type="line"/>
      <point x="1154" y="1449" type="line"/>
      <point x="103" y="901" type="line"/>
    </contour>
    <contour>
      <point x="154" y="0" type="line"/>
      <point x="1233" y="0" type="line"/>
      <point x="1233" y="218" type="line"/>
      <point x="154" y="218" type="line"/>
    </contour>
  </outline>
</glyph>
<glyph name="greaterequal" format="1">
  <advance width="1456"/>
  <unicode hex="2265"/>
  <outline>
    <contour>
      <point x="272" y="352" type="line"/>
      <point x="1323" y="901" type="line"/>
      <point x="272" y="1449" type="line"/>
      <point x="145" y="1196" type="line"/>
      <point x="743" y="901" type="line"/>
      <point x="145" y="605" type="line"/>
    </contour>
    <contour>
      <point x="193" y="0" type="line"/>
      <point x="1272" y="0" type="line"/>
      <point x="1272" y="218" type="line"/>
      <point x="193" y="218" type="line"/>
    </contour>
  </outline>
</glyph>
<glyph name="lozenge" format="1">
  <advance width="1369"/>
  <unicode hex="25CA"/>
  <outline>
    <contour>
      <point x="684" y="225" type="line"/>
      <point x="396" y="551" type="line"/>
      <point x="685" y="879" type="line"/>
      <point x="973" y="553" type="line"/>
    </contour>
    <contour>
      <point x="684" y="-64" type="line"/>
      <point x="1263" y="553" type="line"/>
      <point x="685" y="1168" type="line"/>
      <point x="106" y="551" type="line"/>
    </contour>
  </outline>
</glyph>
<glyph name="uniFB01" format="1">
  <advance width="1554"/>
  <unicode hex="FB01"/>
  <outline>
    <contour>
      <point x="196" y="0" type="line"/>
      <point x="585" y="0" type="line"/>
      <point x="585" y="927" type="line"/>
      <point x="998" y="927" type="line"/>
      <point x="998" y="0" type="line"/>
      <point x="1391" y="0" type="line"/>
      <point x="1391" y="1098" type="line"/>
      <point x="587" y="1098" type="line"/>
      <point x="587" y="1109"/>
      <point x="587" y="1121"/>
      <point x="588" y="1131" type="curve" smooth="yes"/>
      <point x="597" y="1277"/>
      <point x="668" y="1284"/>
      <point x="706" y="1284" type="curve" smooth="yes"/>
      <point x="756" y="1284"/>
      <point x="801" y="1288"/>
      <point x="844" y="1279" type="curve"/>
      <point x="821" y="1568" type="line"/>
      <point x="744" y="1574"/>
      <point x="680" y="1572"/>
      <point x="610" y="1572" type="curve" smooth="yes"/>
      <point x="368" y="1572"/>
      <point x="213" y="1441"/>
      <point x="197" y="1149" type="curve" smooth="yes"/>
      <point x="196" y="1132"/>
      <point x="196" y="1115"/>
      <point x="196" y="1098" type="curve"/>
      <point x="18" y="1098" type="line"/>
      <point x="18" y="927" type="line"/>
      <point x="196" y="927" type="line"/>
    </contour>
    <contour>
      <point x="1194" y="1262" type="curve" smooth="yes"/>
      <point x="1313" y="1262"/>
      <point x="1411" y="1352"/>
      <point x="1411" y="1473" type="curve" smooth="yes"/>
      <point x="1411" y="1593"/>
      <point x="1312" y="1686"/>
      <point x="1194" y="1686" type="curve" smooth="yes"/>
      <point x="1074" y="1686"/>
      <point x="982" y="1593"/>
      <point x="982" y="1473" type="curve" smooth="yes"/>
      <point x="982" y="1357"/>
      <point x="1071" y="1262"/>
    </contour>
  </outline>
</glyph>
<glyph name="uniFB04" format="1">
  <advance width="2364"/>
  <unicode hex="FB04"/>
  <outline>
    <contour>
      <point x="194" y="0" type="line"/>
      <point x="583" y="0" type="line"/>
      <point x="583" y="891" type="line"/>
      <point x="1025" y="891" type="line"/>
      <point x="1025" y="0" type="line"/>
      <point x="1414" y="0" type="line"/>
      <point x="1414" y="891" type="line"/>
      <point x="1655" y="891" type="line"/>
      <point x="1655" y="1096" type="line"/>
      <point x="1416" y="1096" type="line"/>
      <point x="1416" y="1122" type="line"/>
      <point x="1422" y="1282"/>
      <point x="1487" y="1323"/>
      <point x="1609" y="1323" type="curve" smooth="yes"/>
      <point x="1667" y="1323"/>
      <point x="1736" y="1313"/>
      <point x="1818" y="1303" type="curve"/>
      <point x="1818" y="0" type="line"/>
      <point x="2209" y="0" type="line"/>
      <point x="2209" y="1529" type="line"/>
      <point x="1958" y="1554"/>
      <point x="1730" y="1586"/>
      <point x="1544" y="1586" type="curve" smooth="yes"/>
      <point x="1231" y="1586"/>
      <point x="1025" y="1494"/>
      <point x="1025" y="1125" type="curve" smooth="yes"/>
      <point x="1025" y="1096" type="line"/>
      <point x="583" y="1096" type="line"/>
      <point x="583" y="1159" type="line" smooth="yes"/>
      <point x="583" y="1265"/>
      <point x="649" y="1296"/>
      <point x="727" y="1296" type="curve" smooth="yes"/>
      <point x="774" y="1296"/>
      <point x="826" y="1285"/>
      <point x="872" y="1271" type="curve"/>
      <point x="926" y="1503" type="line"/>
      <point x="857" y="1547"/>
      <point x="740" y="1580"/>
      <point x="602" y="1580" type="curve" smooth="yes"/>
      <point x="422" y="1580"/>
      <point x="194" y="1500"/>
      <point x="194" y="1116" type="curve" smooth="yes"/>
      <point x="194" y="1096" type="line"/>
      <point x="13" y="1096" type="line"/>
      <point x="13" y="891" type="line"/>
      <point x="194" y="891" type="line"/>
    </contour>
  </outline>
</glyph>
